<?xml version="1.0" encoding="UTF-8"?>
<svg version="1.1" xmlns="http://www.w3.org/2000/svg" width="500" height="500">
<path d="M0 0 C2.22016936 -0.00135925 4.44033849 -0.00314209 6.6605072 -0.00531006 C12.6230977 -0.0098214 18.58567065 -0.00812129 24.5482614 -0.00493097 C30.82581993 -0.00237544 37.10337708 -0.00475363 43.38093567 -0.00631714 C54.58577335 -0.00824479 65.79060466 -0.00516436 76.99544082 -0.0000578 C87.11545402 0.00441182 97.23545575 0.0036293 107.35546875 -0.00097656 C119.16794533 -0.00635035 130.98041635 -0.00830854 142.79289418 -0.0053643 C149.02392655 -0.00381443 155.25495105 -0.00357218 161.48598289 -0.00690079 C167.34420233 -0.00981251 173.20240031 -0.00774381 179.06061745 -0.00200653 C181.19616282 -0.00069669 183.33171003 -0.0010424 185.46725464 -0.0032692 C195.26551993 -0.0125358 205.04860392 0.03454944 214.83613586 0.53201294 C215.88306084 0.58147578 215.88306084 0.58147578 216.95113581 0.63193786 C239.12749125 1.93333207 258.24284855 11.94419016 273.79223633 27.51611328 C275.88788003 30.02863235 276.98008254 32.03685568 277.97192383 35.12939453 C278.63192383 35.12939453 279.29192383 35.12939453 279.97192383 35.12939453 C293.25484514 58.573183 295.2855439 80.42768961 295.23071289 106.92114258 C295.23342983 109.15246189 295.23699468 111.3837803 295.24133301 113.61509705 C295.25037834 119.62367103 295.24694474 125.6321756 295.24057484 131.64075065 C295.23547069 137.96670436 295.24021875 144.29265259 295.24334717 150.61860657 C295.24720706 161.92099118 295.24103287 173.22334097 295.23082849 184.52571861 C295.22190615 194.72264624 295.22343887 204.91952828 295.23266602 215.11645508 C295.24343058 227.01759062 295.24731978 238.91870416 295.24144149 250.8198455 C295.23834709 257.09748 295.23784164 263.37508328 295.24451447 269.65271568 C295.25035941 275.56346393 295.24616257 281.47412747 295.23472595 287.38486671 C295.2321165 289.53443385 295.23277939 291.68400832 295.23725128 293.83357239 C295.28757606 320.51696001 294.02746007 344.37743333 280.97192383 368.12939453 C280.43696289 369.10650391 279.90200195 370.08361328 279.35083008 371.09033203 C278.89579102 371.76322266 278.44075195 372.43611328 277.97192383 373.12939453 C277.31192383 373.12939453 276.65192383 373.12939453 275.97192383 373.12939453 C275.71024414 373.87705078 275.44856445 374.62470703 275.17895508 375.39501953 C269.69153452 387.82606933 253.01713007 395.85813668 240.94067383 400.69189453 C222.5333862 407.5990779 201.97304369 406.278137 182.6159668 406.25878906 C180.31270317 406.26014706 178.00943976 406.26192923 175.70617676 406.26409912 C169.49975719 406.26862549 163.2933544 406.26690391 157.08693457 406.26372004 C150.5650462 406.26117212 144.04315918 406.26354066 137.52127075 406.2651062 C125.8760651 406.26723548 114.23086646 406.26394732 102.58566202 406.25884686 C92.05702289 406.25437803 81.52839479 406.25515825 70.99975586 406.25976562 C58.7277129 406.26513352 46.45567695 406.26710062 34.18363297 406.26415336 C27.7039203 406.26260065 21.2242152 406.26236919 14.74450302 406.26568985 C8.65242513 406.26859437 2.56036791 406.26654574 -3.53170776 406.26079559 C-5.75720053 406.2594819 -7.98269506 406.25983826 -10.2081871 406.26205826 C-42.32473025 406.29112377 -42.32473025 406.29112377 -53.71557617 403.37939453 C-54.42053223 403.20601563 -55.12548828 403.03263672 -55.85180664 402.85400391 C-64.83020211 400.54463247 -73.13118081 396.97521668 -81.02807617 392.12939453 C-81.02807617 391.46939453 -81.02807617 390.80939453 -81.02807617 390.12939453 C-81.73448242 389.90767578 -82.44088867 389.68595703 -83.16870117 389.45751953 C-97.56803493 382.7693044 -106.42770851 364.72294033 -111.83666992 350.69970703 C-114.11701899 343.86613638 -115.44208513 337.24229424 -116.13690186 330.09498596 C-116.22115661 329.23108641 -116.30541137 328.36718686 -116.39221931 327.47710854 C-117.33691781 316.88641279 -117.30847059 306.30423464 -117.28686523 295.67993164 C-117.28958294 293.40241891 -117.29314821 291.12490707 -117.29748535 288.84739685 C-117.30651843 282.72351147 -117.30310313 276.59969431 -117.29672718 270.47580791 C-117.29162033 264.03054687 -117.29637148 257.5852912 -117.29949951 251.14002991 C-117.30335678 239.63249946 -117.29718985 228.12500353 -117.28698084 216.6174785 C-117.27804577 206.22486958 -117.27960255 195.83230538 -117.28881836 185.43969727 C-117.29956784 173.31224864 -117.303481 161.18483502 -117.29759383 149.05738074 C-117.29449435 142.65917837 -117.29400872 136.26100665 -117.30066681 129.86280632 C-117.30649275 123.84534363 -117.30234847 117.82796442 -117.2908783 111.81051064 C-117.28825966 109.61733513 -117.28894817 107.42415246 -117.29340363 105.23097992 C-117.31223435 95.01046228 -117.18999542 84.87445905 -116.15252686 74.69923401 C-116.07715014 73.95309591 -116.00177342 73.20695782 -115.92411256 72.43820947 C-114.39107406 59.15248464 -109.43751388 46.2435511 -102.02807617 35.12939453 C-101.36807617 35.12939453 -100.70807617 35.12939453 -100.02807617 35.12939453 C-99.79733398 34.41138672 -99.5665918 33.69337891 -99.32885742 32.95361328 C-97.77460476 29.57906472 -95.85022419 27.55284256 -93.21557617 24.94189453 C-92.36350586 24.08208984 -91.51143555 23.22228516 -90.63354492 22.33642578 C-88.12137604 20.20842665 -86.13733455 19.12859965 -83.02807617 18.12939453 C-83.02807617 17.46939453 -83.02807617 16.80939453 -83.02807617 16.12939453 C-56.5053438 -0.11477134 -30.2271494 -0.0316177 0 0 Z " fill="#3BAA59" transform="translate(161.028076171875,46.87060546875)"/>
<path d="M0 0 C3.03215675 2.19831364 3.81654398 3.44963194 5 7 C5.09759539 9.49071886 5.13909019 11.95335173 5.13371277 14.44413757 C5.13597833 15.20876417 5.13824388 15.97339076 5.14057809 16.76118785 C5.14692379 19.33128564 5.14608835 21.90133077 5.14526367 24.47143555 C5.14825489 26.3110918 5.15165733 28.15074743 5.15544128 29.99040222 C5.16429126 34.99473771 5.16661987 39.9990561 5.16725707 45.00339866 C5.16820586 49.18063374 5.17188397 53.35786483 5.17542917 57.53509837 C5.1835782 67.39311125 5.18601306 77.251115 5.18530273 87.10913086 C5.18470243 97.27521881 5.19524382 107.44125361 5.2110464 117.60732812 C5.22412961 126.33525711 5.22948627 135.06316875 5.22884732 143.79110748 C5.22859248 149.00376458 5.23143578 154.2163745 5.24202538 159.42902184 C5.25171897 164.33489328 5.25177684 169.24067259 5.24450874 174.14654732 C5.24346434 175.94441742 5.24581722 177.74229329 5.2518692 179.5401535 C5.25961286 182.00052468 5.25492865 184.4605796 5.24723816 186.92094421 C5.25238172 187.6270934 5.25752529 188.33324259 5.26282471 189.06079024 C5.17780505 201.42804332 -0.20759483 214.1525956 -8.9296875 222.9453125 C-18.04605266 230.65915994 -29.4479972 234.17836306 -41.1875 234.25 C-42.4259668 234.2809375 -42.4259668 234.2809375 -43.68945312 234.3125 C-52.95624183 234.37091947 -60.26826215 231.42902587 -67 225 C-74.13610543 215.78629426 -75.1883974 206.3265841 -74 195 C-71.62032711 184.11426231 -64.08115298 175.65731807 -55.4140625 169.01953125 C-46.16318049 163.11005615 -36.82454798 161.56953616 -26 161.375 C-23.95823424 161.32414656 -21.91655492 161.26964888 -19.875 161.2109375 C-18.98554688 161.19337402 -18.09609375 161.17581055 -17.1796875 161.15771484 C-14.95407186 161.13599364 -14.95407186 161.13599364 -13 160 C-12.97687879 147.2396613 -12.95908605 134.47932755 -12.94818783 121.71897221 C-12.94295851 115.79449285 -12.93585999 109.87002778 -12.92456055 103.94555664 C-12.91373339 98.23327429 -12.90772353 92.52100572 -12.90512276 86.80871391 C-12.9032682 84.62411723 -12.899647 82.43952135 -12.89426994 80.2549305 C-12.88706179 77.20647651 -12.88600896 74.15808021 -12.88647461 71.10961914 C-12.88287933 70.19684204 -12.87928406 69.28406494 -12.87557983 68.34362793 C-12.47918342 64.35432545 -12.47918342 64.35432545 -14 61 C-19.5808451 60.64046738 -24.19426844 61.61668283 -29.4921875 63.125 C-30.30317902 63.34755463 -31.11417053 63.57010925 -31.94973755 63.79940796 C-33.68966714 64.27739425 -35.42856609 64.75914541 -37.16650391 65.24432373 C-41.76976278 66.52864291 -46.38080593 67.78427333 -50.9921875 69.0390625 C-51.92166199 69.29241364 -52.85113647 69.54576477 -53.80877686 69.80679321 C-62.50054064 72.16258214 -71.23763172 74.3000413 -80 76.375 C-89.73740232 78.68521592 -99.39406161 81.11524069 -108.953125 84.08984375 C-111.62943536 84.88930569 -114.25262023 85.50939647 -117 86 C-118.03795878 89.11387633 -118.12720378 91.26676631 -118.13130188 94.53248596 C-118.13531006 95.68331161 -118.13931824 96.83413727 -118.14344788 98.01983643 C-118.14291916 99.28374207 -118.14239044 100.54764771 -118.1418457 101.84985352 C-118.14487774 103.19366063 -118.14839932 104.53746671 -118.15237427 105.88127136 C-118.16026282 108.77704037 -118.16540814 111.67279706 -118.16866493 114.56857491 C-118.17458135 119.15447368 -118.19112967 123.74029508 -118.21000671 128.32615662 C-118.21634431 129.89744277 -118.22266993 131.46872897 -118.22898388 133.04001522 C-118.23214969 133.82700892 -118.2353155 134.61400263 -118.23857725 135.42484462 C-118.28060644 146.10002899 -118.3136024 156.7751779 -118.32592773 167.45043945 C-118.33432774 174.65191465 -118.35689262 181.85319868 -118.3952834 189.05457824 C-118.41498438 192.86224851 -118.42746874 196.6696334 -118.42244911 200.47735786 C-118.41777715 204.06525594 -118.43174527 207.65261467 -118.45946121 211.24040413 C-118.46958445 213.17073334 -118.4601629 215.10113479 -118.44996643 217.03146362 C-118.58790293 229.9820629 -122.92878551 238.82959012 -131.94921875 247.9765625 C-136.25198486 251.94964712 -140.62822795 254.70278431 -146 257 C-146.86625 257.391875 -147.7325 257.78375 -148.625 258.1875 C-157.88597927 261.35572975 -171.07406204 261.63994801 -180.18359375 257.90625 C-187.71352895 254.1493791 -193.19678483 248.85926611 -196.40014648 241.00952148 C-197.51519703 237.27407947 -197.48652958 233.55967839 -197.4375 229.6875 C-197.42920166 228.84590332 -197.42090332 228.00430664 -197.41235352 227.13720703 C-197.12070128 216.40731092 -193.35476848 208.80414333 -186 201 C-178.36169001 194.12705173 -168.51478966 188.59977954 -158.05078125 188.91015625 C-156.95572266 188.93013672 -155.86066406 188.95011719 -154.73242188 188.97070312 C-152.44065606 189.03221826 -150.14898488 189.09735941 -147.85742188 189.16601562 C-146.76623047 189.18470703 -145.67503906 189.20339844 -144.55078125 189.22265625 C-143.55731689 189.25109619 -142.56385254 189.27953613 -141.5402832 189.30883789 C-139.01797225 189.20511245 -139.01797225 189.20511245 -137.36404991 187.84951496 C-135.42867436 185.22533969 -135.62922303 183.34199539 -135.63491821 180.09892273 C-135.62960587 178.86658905 -135.62429352 177.63425537 -135.61882019 176.36457825 C-135.62796868 174.99654992 -135.63736105 173.6285232 -135.64697266 172.26049805 C-135.64614196 170.82153179 -135.6439261 169.38256576 -135.64042664 167.94360352 C-135.63547319 164.84313441 -135.63958243 161.7428543 -135.65044022 158.64240074 C-135.66678343 153.73831236 -135.65834342 148.83446179 -135.64559937 143.93037415 C-135.61545953 130.86481778 -135.61693175 117.79930365 -135.63585222 104.73373014 C-135.64818836 96.15250828 -135.64631538 87.57155526 -135.61746442 78.99036437 C-135.60223157 74.11704456 -135.60971129 69.24445424 -135.63417459 64.37117994 C-135.64425558 61.33558849 -135.63354277 58.30033059 -135.61705971 55.26477814 C-135.61361196 53.85952746 -135.61868877 52.4542254 -135.63302803 51.04904366 C-135.7472974 39.10964801 -135.7472974 39.10964801 -132.58016968 35.19953918 C-124.89180313 28.64537198 -114.61278817 27.23520754 -105 25 C-102.37152898 24.38043544 -99.74370154 23.75823071 -97.11621094 23.13452148 C-95.40273741 22.72864127 -93.68860193 22.3255391 -91.97363281 21.92602539 C-84.92412578 20.26923841 -77.93407315 18.40279633 -70.94204712 16.52093506 C-67.82044686 15.68359646 -64.69523009 14.86001388 -61.5703125 14.03515625 C-59.08841747 13.37807311 -56.60664839 12.72051405 -54.125 12.0625 C-53.47723602 11.89080292 -52.82947205 11.71910583 -52.16207886 11.54220581 C-43.17336112 9.15607867 -34.23063315 6.66565382 -25.34765625 3.91015625 C-21.90490321 2.97414521 -18.53168334 2.47713937 -15 2 C-14.05125 1.649375 -13.1025 1.29875 -12.125 0.9375 C-8.02448534 -0.2926544 -4.24534491 -0.66989283 0 0 Z " fill="#F4F1E5" transform="translate(339,111)"/>
<path d="M0 0 C1.68230206 -0.00102342 3.36460394 -0.00236722 5.04690552 -0.0039978 C9.65410101 -0.00672081 14.26126313 -0.00216907 18.86845398 0.00424194 C21.78685608 0.00782899 24.70525318 0.0094379 27.62365723 0.01049805 C87.46629147 0.03718442 147.30843658 0.61491878 207.1484375 1.1328125 C204.28959987 2.7515918 202.24901555 3.38238849 198.97054672 3.37890816 C198.14050117 3.38289025 197.31045562 3.38687235 196.45525718 3.39097512 C195.54864475 3.38514943 194.64203231 3.37932375 193.70794678 3.37332153 C192.25724269 3.37588481 192.25724269 3.37588481 190.77723145 3.37849987 C187.52817069 3.38180088 184.27931526 3.37078089 181.03027344 3.35986328 C178.70458989 3.3592993 176.37890599 3.35961547 174.05322266 3.36074829 C167.73131604 3.36132331 161.40948496 3.34954476 155.08759594 3.33560038 C149.15263797 3.32438205 143.21768297 3.32235516 137.28271583 3.32029663 C125.52733013 3.31591935 113.77197219 3.30260933 102.01660156 3.28369141 C90.59733214 3.26533347 79.17807026 3.25117655 67.75878906 3.24267578 C67.054909 3.24215033 66.35102894 3.24162489 65.62581918 3.24108352 C62.09466095 3.23847344 58.56350266 3.23594603 55.03234434 3.23345971 C25.73769083 3.21272617 -3.55693554 3.17735105 -32.8515625 3.1328125 C-26.82653684 -2.89221316 -8.49746704 -0.01208998 0 0 Z " fill="#308045" transform="translate(163.8515625,449.8671875)"/>
<path d="M0 0 C2.22739694 -0.00135761 4.45479365 -0.00313956 6.68218994 -0.00531006 C12.69025306 -0.00984103 18.69829886 -0.00811291 24.70636225 -0.00493097 C31.01565755 -0.0023855 37.32495146 -0.00475092 43.63424683 -0.00631714 C54.90067586 -0.00824819 66.16709782 -0.00515638 77.43352519 -0.0000578 C87.6239816 0.00441123 97.81442661 0.00363092 108.00488281 -0.00097656 C119.87696366 -0.00634195 131.749039 -0.00831288 143.62112129 -0.0053643 C149.89176639 -0.00381045 156.16240366 -0.0035833 162.43304825 -0.00690079 C168.32810747 -0.00980223 174.22314529 -0.00776222 180.11820221 -0.00200653 C182.27358083 -0.00069121 184.42896126 -0.00105203 186.58433914 -0.0032692 C216.58407323 -0.03126978 216.58407323 -0.03126978 222.57373047 3.12939453 C221.75916333 3.12882495 221.75916333 3.12882495 220.92814028 3.12824386 C188.77043405 3.10588452 156.61272987 3.08871746 124.45501766 3.0783292 C120.59712765 3.07707844 116.73923765 3.07578412 112.88134766 3.07446289 C112.11328428 3.07420058 111.34522091 3.07393827 110.55388288 3.07366801 C98.10393488 3.06931213 85.65399148 3.06142502 73.2040462 3.05224174 C60.43715674 3.04290293 47.67026968 3.03733844 34.90337694 3.03530604 C27.02025733 3.03393128 19.13715071 3.02958324 11.2540351 3.02147806 C5.21772631 3.01558642 -0.8185712 3.01493615 -6.85488319 3.01628685 C-9.33738218 3.01601051 -11.81988163 3.01400528 -14.3023777 3.01018906 C-17.67795253 3.00525213 -21.05347063 3.00639627 -24.42904663 3.00914001 C-25.42319466 3.00622717 -26.41734269 3.00331433 -27.44161642 3.00031322 C-28.34083118 3.00230427 -29.24004594 3.00429532 -30.16650963 3.0063467 C-31.33642797 3.00577712 -31.33642797 3.00577712 -32.52998102 3.00519603 C-34.5148631 3.01210727 -34.5148631 3.01210727 -36.42626953 4.12939453 C-38.43427409 3.84827389 -40.43641004 3.51871487 -42.42626953 3.12939453 C-42.42626953 2.79939453 -42.42626953 2.46939453 -42.42626953 2.12939453 C-28.69612278 -0.9141189 -13.97478155 -0.01440503 0 0 Z " fill="#408953" transform="translate(160.42626953125,46.87060546875)"/>
<path d="M0 0 C-1.98 0.33 -3.96 0.66 -6 1 C-6 1.66 -6 2.32 -6 3 C-9.27206095 4.68880565 -11.76688477 5.07935752 -15.375 4.9375 C-20.04306688 4.81343178 -22.8180822 5.98946259 -27 8 C-28.423125 8.2784375 -28.423125 8.2784375 -29.875 8.5625 C-30.926875 8.7790625 -30.926875 8.7790625 -32 9 C-32.33 9.66 -32.66 10.32 -33 11 C-36.0625 11.625 -36.0625 11.625 -39 12 C-41.7269334 18.70874222 -42.39984712 24.51126508 -42.2578125 31.7109375 C-42.25119598 32.71855133 -42.24457947 33.72616516 -42.23776245 34.76431274 C-42.21453625 37.96819806 -42.17098052 41.17136758 -42.125 44.375 C-42.07794912 48.57026314 -42.03971352 52.76553265 -42.0078125 56.9609375 C-41.99953934 57.99774155 -41.99126617 59.03454559 -41.98274231 60.10276794 C-41.9501911 66.92580429 -42.17321211 73.68857949 -42.59718323 80.49662781 C-43.31974065 92.54452343 -43.37033785 104.62207012 -43.5625 116.6875 C-43.60581136 119.25065627 -43.64942907 121.81380739 -43.69335938 124.37695312 C-43.79909798 130.5845805 -43.90108093 136.7922604 -44 143 C-44.33 143 -44.66 143 -45 143 C-45.09341512 126.11922724 -45.16396524 109.23853506 -45.20724869 92.35756302 C-45.22787957 84.51953749 -45.25601003 76.68167249 -45.30175781 68.84375 C-45.34160971 62.01271164 -45.36742899 55.18178953 -45.37635398 48.35063815 C-45.3815716 44.73307579 -45.39384524 41.11584603 -45.42292023 37.4983902 C-45.45510487 33.46134141 -45.45596049 29.42487194 -45.45410156 25.38769531 C-45.46848267 24.18648041 -45.48286377 22.9852655 -45.49768066 21.74765015 C-45.48943268 20.09864212 -45.48943268 20.09864212 -45.48101807 18.4163208 C-45.48470524 17.46134327 -45.48839241 16.50636574 -45.49219131 15.52244949 C-44.8524295 12.24371048 -43.55673738 11.08071175 -41 9 C-33.13946615 5.46951023 -24.35497147 3.68848056 -16 1.6875 C-14.89527344 1.41099609 -13.79054687 1.13449219 -12.65234375 0.84960938 C-11.59144531 0.59373047 -10.53054687 0.33785156 -9.4375 0.07421875 C-8.48746094 -0.15692627 -7.53742188 -0.38807129 -6.55859375 -0.6262207 C-3.99103185 -1.00131014 -2.43190695 -0.83078233 0 0 Z " fill="#77BF89" transform="translate(265,187)"/>
<path d="M0 0 C0.33 0.99 0.66 1.98 1 3 C1.99 3 2.98 3 4 3 C6.75342073 7.67685593 7.41799886 11.45927415 7.32279968 16.7828064 C7.3212794 17.54747368 7.31975913 18.31214097 7.31819278 19.09998 C7.30945064 21.65207634 7.27909594 24.20344679 7.2487793 26.75537109 C7.23806685 28.58873797 7.22869103 30.42211307 7.22055054 32.25549316 C7.19469581 37.22621794 7.15015129 42.19662014 7.10225272 47.16717482 C7.05535041 52.36411649 7.02563378 57.5611557 6.99409485 62.75820923 C6.93177718 72.59667956 6.85400197 82.43496456 6.77067453 92.27327693 C6.67655146 103.47505889 6.59965832 114.67693838 6.52421319 125.87885928 C6.36864869 148.91939927 6.19144417 171.95973218 6 195 C5.67 195 5.34 195 5 195 C4.99668985 194.05724401 4.99337971 193.11448803 4.98996925 192.14316368 C4.90899064 169.20839239 4.81667983 146.27368807 4.71247292 123.33901024 C4.66234194 112.24799352 4.61589902 101.15698422 4.578125 90.06591797 C4.54519349 80.39943663 4.50535579 70.7330127 4.45720994 61.06659472 C4.43195655 55.94787571 4.41017177 50.82919473 4.39665604 45.71043015 C4.38382525 40.89238986 4.36175969 36.07448007 4.33261681 31.25651169 C4.32354902 29.48845836 4.31785266 27.72038403 4.31578636 25.95230865 C4.31245819 23.53701731 4.29696583 21.1220947 4.2784729 18.70687866 C4.28040763 18.00842122 4.28234237 17.30996379 4.28433573 16.59034097 C4.23605315 12.36781093 3.5335321 8.93033034 2 5 C-5.03482474 4.76331431 -11.1834265 5.2120463 -18 7 C-18 5.68 -18 4.36 -18 3 C-15.36 3 -12.72 3 -10 3 C-9.67 2.34 -9.34 1.68 -9 1 C-2.49462366 -1.24731183 -2.49462366 -1.24731183 0 0 Z " fill="#56AF6C" transform="translate(339,107)"/>
<path d="M0 0 C2.69382613 2.69382613 2.25070447 4.78476589 2.28216553 8.4458313 C2.27968811 9.35187103 2.27721069 10.25791077 2.2746582 11.19140625 C2.2823246 12.62080032 2.2823246 12.62080032 2.29014587 14.07907104 C2.304087 17.24027727 2.30308186 20.40126662 2.30078125 23.5625 C2.30466539 25.75203534 2.30899947 27.94156992 2.31376648 30.13110352 C2.32123821 34.72447144 2.32093029 39.31776252 2.31567383 43.91113281 C2.30987474 49.80971755 2.32681634 55.70798875 2.3500185 61.60652161 C2.36471895 66.12912854 2.36563264 70.6516593 2.36250877 75.17428589 C2.36302374 77.34968691 2.3682941 79.525092 2.37832069 81.70046997 C2.39059786 84.73672125 2.38394627 87.77235308 2.37231445 90.80859375 C2.38378006 92.16765335 2.38378006 92.16765335 2.39547729 93.5541687 C2.3742218 96.05249023 2.3742218 96.05249023 2 100 C-1.15314785 102.10209857 -1.86103081 102.2434761 -5.44921875 102.1953125 C-6.72055664 102.18564453 -6.72055664 102.18564453 -8.01757812 102.17578125 C-8.89865234 102.15902344 -9.77972656 102.14226562 -10.6875 102.125 C-12.02651367 102.11146484 -12.02651367 102.11146484 -13.39257812 102.09765625 C-15.59532314 102.07409748 -17.79752588 102.04120329 -20 102 C-20 101.67 -20 101.34 -20 101 C-13.73 100.67 -7.46 100.34 -1 100 C-1 68.32 -1 36.64 -1 4 C-1.99 4 -2.98 4 -4 4 C-4 3.34 -4 2.68 -4 2 C-4.67546875 2.15597656 -5.3509375 2.31195313 -6.046875 2.47265625 C-6.93890625 2.66730469 -7.8309375 2.86195313 -8.75 3.0625 C-9.63171875 3.25972656 -10.5134375 3.45695313 -11.421875 3.66015625 C-13.98679028 3.99825872 -15.57091639 3.81158635 -18 3 C-6.01772817 -0.64018385 -6.01772817 -0.64018385 0 0 Z " fill="#5CA871" transform="translate(325,171)"/>
<path d="M0 0 C2.0625 0.4375 2.0625 0.4375 4 1 C2 3 0 5 -2 7 C-2.10880464 8.89792981 -2.1468932 10.7999307 -2.15821838 12.70094299 C-2.17290161 14.55832596 -2.17290161 14.55832596 -2.18788147 16.45323181 C-2.19378642 17.83804283 -2.19959682 19.22285425 -2.20532227 20.60766602 C-2.21489543 22.05607384 -2.22490517 23.50447885 -2.23532104 24.95288086 C-2.2624371 28.89689271 -2.28341025 32.84091661 -2.30332303 36.78497052 C-2.32514141 40.90231875 -2.35255032 45.01962956 -2.37937927 49.13694763 C-2.42936244 56.93903149 -2.47428032 64.74113605 -2.51740164 72.54326051 C-2.56672606 81.42342961 -2.62166191 90.30356118 -2.67708123 99.18369401 C-2.79098757 117.45576118 -2.89780767 135.72786375 -3 154 C-3.33 154 -3.66 154 -4 154 C-4.07007131 134.78957495 -4.12297897 115.57917582 -4.15543652 96.36864948 C-4.17090748 87.44892925 -4.19200137 78.52928841 -4.22631836 69.60961914 C-4.25621371 61.83551884 -4.27557334 54.06147603 -4.28226548 46.28731984 C-4.28617752 42.17068978 -4.29537606 38.05422422 -4.31719017 33.93764687 C-4.3375575 30.06268734 -4.34383334 26.18796002 -4.33932304 22.31295204 C-4.34014814 20.89115131 -4.34611247 19.46934278 -4.35761642 18.04758835 C-4.3725625 16.10509109 -4.36716128 14.16246915 -4.36076355 12.21992493 C-4.36352893 11.133131 -4.36629431 10.04633707 -4.36914349 8.92660999 C-3.91069695 5.29199566 -2.6085327 2.6085327 0 0 Z " fill="#6FB681" transform="translate(207,143)"/>
<path d="M0 0 C1.98 0 3.96 0 6 0 C3 2 3 2 1 2 C-0.0406282 5.1218846 -0.13481175 7.31052097 -0.15148926 10.58631897 C-0.15983292 11.7487059 -0.16817657 12.91109283 -0.17677307 14.10870361 C-0.18095749 15.38517761 -0.18514191 16.66165161 -0.18945312 17.97680664 C-0.19739577 19.33359535 -0.20578375 20.69038151 -0.21458435 22.04716492 C-0.2326401 24.96913477 -0.24765601 27.89109903 -0.26036072 30.813097 C-0.28057294 35.43040187 -0.30822551 40.04764361 -0.33703613 44.66490173 C-0.40224543 55.29826263 -0.45768743 65.93167032 -0.51302338 76.56508636 C-0.56384249 86.31251288 -0.61670274 96.05991645 -0.67754889 105.8072862 C-0.70593681 110.40045476 -0.72951846 114.99361575 -0.74947357 119.58682835 C-0.76283681 122.43966232 -0.78025019 125.29246097 -0.79878426 128.14526558 C-0.81027252 130.10576864 -0.81681029 132.06629873 -0.82322693 134.02682495 C-0.83157059 135.18639206 -0.83991425 136.34595917 -0.84851074 137.54066467 C-0.85366447 138.55258409 -0.85881821 139.5645035 -0.86412811 140.60708714 C-1 143 -1 143 -2 145 C-2.66 145 -3.32 145 -4 145 C-3.83798568 144.13003199 -3.67597136 143.26006397 -3.50904751 142.36373329 C-3.03615233 139.23889089 -2.86759231 136.33593197 -2.85523987 133.18026733 C-2.84834137 132.04188919 -2.84144287 130.90351105 -2.83433533 129.7306366 C-2.83172195 128.49614273 -2.82910858 127.26164886 -2.82641602 125.98974609 C-2.81615182 123.9771518 -2.80588544 121.96455752 -2.79553688 119.95196366 C-2.78533345 117.79678934 -2.77746833 115.64161724 -2.77020454 113.48643112 C-2.75470577 108.99015244 -2.73075925 104.49394311 -2.70530701 99.99771118 C-2.63421898 87.21531556 -2.57424488 74.43288152 -2.52319336 61.65039062 C-2.49489741 54.58413935 -2.45952745 47.51795842 -2.41653961 40.45178092 C-2.38977352 35.98208402 -2.37186531 31.51246656 -2.36050236 27.0427053 C-2.34923931 23.61223668 -2.3251173 20.1818801 -2.30297852 16.75146484 C-2.30238937 15.51292252 -2.30180023 14.27438019 -2.30119324 12.99830627 C-2.29147491 11.86556778 -2.28175659 10.73282928 -2.27174377 9.56576538 C-2.26751184 8.58170904 -2.2632799 7.5976527 -2.25891972 6.58377647 C-1.99269046 3.92705762 -1.35514026 2.27756308 0 0 Z " fill="#E6FCE0" transform="translate(221,195)"/>
<path d="M0 0 C0.33 0 0.66 0 1 0 C1 49.17 1 98.34 1 149 C-0.32 149.33 -1.64 149.66 -3 150 C-2.34 149.01 -1.68 148.02 -1 147 C-0.68719539 144.23789834 -0.68719539 144.23789834 -0.7215271 141.05854797 C-0.71036362 139.81754333 -0.69920013 138.5765387 -0.68769836 137.29792786 C-0.68533333 135.92037994 -0.68315769 134.54283169 -0.68115234 133.1652832 C-0.67185552 131.71657755 -0.66168721 130.26787726 -0.65071106 128.81918335 C-0.6233692 124.88354751 -0.60824931 120.94794754 -0.59528303 117.0122416 C-0.57967076 112.90022422 -0.5528745 108.7882803 -0.5272522 104.67631531 C-0.48043063 96.88847159 -0.4437029 89.10061411 -0.41057932 81.3127014 C-0.37238177 72.44697526 -0.32296544 63.58132283 -0.27259517 54.71565878 C-0.16922509 36.47715978 -0.07998122 18.23861581 0 0 Z " fill="#DFF8D9" transform="translate(204,150)"/>
<path d="M0 0 C0.99 0 1.98 0 3 0 C3.06939283 13.26457332 3.12275667 26.52910373 3.15543652 39.79382133 C3.17111815 45.9526191 3.19240198 52.11129304 3.22631836 58.27001953 C3.25882272 64.2092524 3.27683418 70.14836589 3.28463173 76.08768082 C3.29019131 78.3579916 3.30104719 80.62829556 3.31719017 82.89855576 C3.33884571 86.06907216 3.3419719 89.23908997 3.34057617 92.40966797 C3.351362 93.35625275 3.36214783 94.30283752 3.3732605 95.27810669 C3.36707451 96.56959625 3.36707451 96.56959625 3.36076355 97.88717651 C3.36352893 98.637516 3.36629431 99.38785549 3.36914349 100.16093254 C3 102 3 102 0 104 C-3.00268555 104.22705078 -3.00268555 104.22705078 -6.63671875 104.1953125 C-8.58481445 104.18564453 -8.58481445 104.18564453 -10.57226562 104.17578125 C-11.94401307 104.1590706 -13.31575786 104.14214071 -14.6875 104.125 C-16.07095718 104.11496674 -17.45442127 104.10584149 -18.83789062 104.09765625 C-22.22543452 104.07404967 -25.61263072 104.04112037 -29 104 C-29 103.67 -29 103.34 -29 103 C-25.48325444 102.21434831 -22.15015198 101.83666961 -18.55078125 101.71875 C-17.53822266 101.68136719 -16.52566406 101.64398438 -15.48242188 101.60546875 C-13.3574348 101.53476678 -11.23243459 101.46445854 -9.10742188 101.39453125 C-8.09873047 101.35714844 -7.09003906 101.31976563 -6.05078125 101.28125 C-5.12950439 101.25095703 -4.20822754 101.22066406 -3.2590332 101.18945312 C-0.96656467 101.13782429 -0.96656467 101.13782429 1 100 C1.02313183 87.25693203 1.0409194 74.51386903 1.05181217 61.77078438 C1.05703915 55.85418076 1.06413347 49.93759147 1.07543945 44.02099609 C1.08627487 38.31519301 1.09227823 32.60940373 1.09487724 26.90359116 C1.09673031 24.72261208 1.10034866 22.54163378 1.10573006 20.36066055 C1.11294914 17.31480503 1.11399057 14.26900718 1.11352539 11.22314453 C1.11712067 10.31396271 1.12071594 9.40478088 1.12442017 8.4680481 C1.25610423 4.09721954 1.25610423 4.09721954 0 0 Z " fill="#BBEBC3" transform="translate(325,171)"/>
<path d="M0 0 C0.33 0 0.66 0 1 0 C1.19991562 11.43899264 1.38366957 22.8781184 1.54658794 34.31770134 C1.62274361 39.6291234 1.70453991 44.94033555 1.79907227 50.25146484 C1.89003549 55.37358451 1.96638426 60.4957297 2.03244972 65.61822891 C2.06029765 67.57600197 2.09348017 69.5337064 2.13199425 71.49129868 C2.18489717 74.22581971 2.21910733 76.95996662 2.2487793 79.69482422 C2.26891586 80.51049866 2.28905243 81.3261731 2.30979919 82.16656494 C2.32279968 84.41867065 2.32279968 84.41867065 2 88 C-1.15314785 90.10209857 -1.86103081 90.2434761 -5.44921875 90.1953125 C-6.72055664 90.18564453 -6.72055664 90.18564453 -8.01757812 90.17578125 C-8.89865234 90.15902344 -9.77972656 90.14226562 -10.6875 90.125 C-12.02651367 90.11146484 -12.02651367 90.11146484 -13.39257812 90.09765625 C-15.59532314 90.07409748 -17.79752588 90.04120329 -20 90 C-20 89.67 -20 89.34 -20 89 C-13.73 88.67 -7.46 88.34 -1 88 C-0.67 58.96 -0.34 29.92 0 0 Z " fill="#48AB64" transform="translate(325,183)"/>
<path d="M0 0 C0.91652344 0.01160156 1.83304687 0.02320312 2.77734375 0.03515625 C3.69644531 0.04417969 4.61554688 0.05320312 5.5625 0.0625 C6.27277344 0.07410156 6.98304688 0.08570312 7.71484375 0.09765625 C7.71484375 0.42765625 7.71484375 0.75765625 7.71484375 1.09765625 C5.6155599 1.62247721 3.51627604 2.14729818 1.41699219 2.67211914 C0.5252832 2.89504639 -0.36642578 3.11797363 -1.28515625 3.34765625 C-3.13411458 3.80989583 -4.98307292 4.27213542 -6.83203125 4.734375 C-7.75693359 4.96560059 -8.68183594 5.19682617 -9.63476562 5.43505859 C-10.50939453 5.65371582 -11.38402344 5.87237305 -12.28515625 6.09765625 C-13.03087891 6.28408691 -13.77660156 6.47051758 -14.54492188 6.66259766 C-15.89786305 7.00083295 -17.25080883 7.33904985 -18.60375977 7.67724609 C-20.53278191 8.15956259 -22.46170353 8.64228105 -24.390625 9.125 C-27.12160142 9.80791779 -29.85351787 10.48694301 -32.5859375 11.1640625 C-33.65569824 11.42981079 -33.65569824 11.42981079 -34.74707031 11.70092773 C-36.71920008 12.19075123 -38.69162128 12.67940092 -40.6640625 13.16796875 C-44.22645101 14.08258414 -47.75396461 15.07056576 -51.28515625 16.09765625 C-51.94515625 14.77765625 -52.60515625 13.45765625 -53.28515625 12.09765625 C-52.71667969 12.04867187 -52.14820313 11.9996875 -51.5625 11.94921875 C-46.57467501 11.4662574 -42.106385 10.51077502 -37.28515625 9.09765625 C-34.47482618 8.5444101 -31.65909767 8.04567168 -28.8359375 7.5625 C-26.34716191 7.1432952 -26.34716191 7.1432952 -24.1875 6.54296875 C-21.23107396 5.85091009 -18.30605469 6.03956205 -15.28515625 6.09765625 C-15.28515625 5.43765625 -15.28515625 4.77765625 -15.28515625 4.09765625 C-11.31056205 2.29102252 -7.59498497 1.6778255 -3.28515625 1.09765625 C-2.28515625 0.09765625 -2.28515625 0.09765625 0 0 Z " fill="#63B57C" transform="translate(262.28515625,126.90234375)"/>
<path d="M0 0 C3.3 0 6.6 0 10 0 C7.76027498 2.23972502 6.72608205 2.49546569 3.7109375 3.21875 C2.85113281 3.42886719 1.99132812 3.63898438 1.10546875 3.85546875 C0.20441406 4.06816406 -0.69664062 4.28085938 -1.625 4.5 C-2.50285156 4.71269531 -3.38070313 4.92539063 -4.28515625 5.14453125 C-6.02182126 5.56514997 -7.75911825 5.9831688 -9.49707031 6.3984375 C-13.00426762 7.24136904 -16.50208744 8.11940663 -20 9 C-19.67 7.35 -19.34 5.7 -19 4 C-15.15158652 2.81968762 -11.241721 2.66764649 -7.25 2.4375 C-6.20392578 2.37272461 -6.20392578 2.37272461 -5.13671875 2.30664062 C-3.42468078 2.20110404 -1.71236439 2.1001009 0 2 C0 1.34 0 0.68 0 0 Z " fill="#4BB36C" transform="translate(292,118)"/>
<path d="M0 0 C-0.68964844 0.38929688 -1.37929688 0.77859375 -2.08984375 1.1796875 C-12.33774733 7.28063421 -20.04552901 14.55139169 -24 26 C-24.33 26 -24.66 26 -25 26 C-25 23.69 -25 21.38 -25 19 C-24.01 18.67 -23.02 18.34 -22 18 C-22 16.68 -22 15.36 -22 14 C-21.34 14 -20.68 14 -20 14 C-19.67 13.01 -19.34 12.02 -19 11 C-18.34 11 -17.68 11 -17 11 C-16.67 10.01 -16.34 9.02 -16 8 C-14 5 -14 5 -11.875 4.3125 C-11.25625 4.209375 -10.6375 4.10625 -10 4 C-10 3.34 -10 2.68 -10 2 C-8.68 2 -7.36 2 -6 2 C-6 1.34 -6 0.68 -6 0 C-3 -1 -3 -1 0 0 Z " fill="#54A96A" transform="translate(291,277)"/>
<path d="M0 0 C0.33 0 0.66 0 1 0 C0.49580302 5.04196983 -0.24504438 10.24504438 -4 14 C-4.33093645 20.71606334 -4.23096866 27.38354345 -3 34 C-2.34 34 -1.68 34 -1 34 C-0.01 36.97 0.98 39.94 2 43 C-3.5459291 38.44441539 -5.66949378 33.06248887 -6.42578125 26.0546875 C-6.86004079 16.77961865 -5.62347238 9.24645565 -1 1 C-0.67 0.67 -0.34 0.34 0 0 Z " fill="#D8F2D4" transform="translate(271,293)"/>
<path d="M0 0 C0.66 0 1.32 0 2 0 C2 0.99 2 1.98 2 3 C3.98 2.67 5.96 2.34 8 2 C8.33 3.65 8.66 5.3 9 7 C11.475 7.495 11.475 7.495 14 8 C13.67 8.66 13.34 9.32 13 10 C5.74839665 8.180206 -1.12380756 5.93841629 -8 3 C-7.34 2.34 -6.68 1.68 -6 1 C-2.875 1.375 -2.875 1.375 0 2 C0 1.34 0 0.68 0 0 Z " fill="#388D50" transform="translate(95,440)"/>
<path d="M0 0 C-1.98 0.33 -3.96 0.66 -6 1 C-6 1.66 -6 2.32 -6 3 C-9.27206095 4.68880565 -11.76688477 5.07935752 -15.375 4.9375 C-19.91575488 4.81800645 -22.81884067 6.19777615 -27 8 C-30.6576432 8.53599113 -34.30963291 8.80647261 -38 9 C-35.71199181 6.71199181 -34.42900301 6.3930548 -31.34375 5.5625 C-29.93222656 5.17964844 -29.93222656 5.17964844 -28.4921875 4.7890625 C-27.50476563 4.52867187 -26.51734375 4.26828125 -25.5 4 C-24.54351562 3.73960937 -23.58703125 3.47921875 -22.6015625 3.2109375 C-4.86148429 -1.54859568 -4.86148429 -1.54859568 0 0 Z " fill="#6BB77F" transform="translate(265,187)"/>
<path d="M0 0 C0.33 0 0.66 0 1 0 C1.07409532 5.92648574 1.12857616 11.85270253 1.16479492 17.77954102 C1.17989179 19.79619034 1.20037115 21.81280679 1.22631836 23.8293457 C1.26266211 26.72615671 1.2797172 29.62253406 1.29296875 32.51953125 C1.30845261 33.42274612 1.32393646 34.325961 1.33988953 35.25654602 C1.34011612 36.09719101 1.34034271 36.937836 1.34057617 37.80395508 C1.34723801 38.54341873 1.35389984 39.28288239 1.36076355 40.04475403 C0.8964617 42.56115107 -0.00203666 43.44926749 -2 45 C-4.17651367 45.2487793 -4.17651367 45.2487793 -6.66796875 45.07421875 C-7.56064453 45.01943359 -8.45332031 44.96464844 -9.37304688 44.90820312 C-10.76620117 44.79895508 -10.76620117 44.79895508 -12.1875 44.6875 C-13.12787109 44.62626953 -14.06824219 44.56503906 -15.03710938 44.50195312 C-17.35940957 44.34870489 -19.67971458 44.1808714 -22 44 C-22 43.67 -22 43.34 -22 43 C-21.44014404 42.97494385 -20.88028809 42.9498877 -20.3034668 42.92407227 C-17.76458695 42.80796255 -15.22606447 42.6853042 -12.6875 42.5625 C-11.80642578 42.52318359 -10.92535156 42.48386719 -10.01757812 42.44335938 C-9.17001953 42.40146484 -8.32246094 42.35957031 -7.44921875 42.31640625 C-6.27879028 42.26141968 -6.27879028 42.26141968 -5.0847168 42.20532227 C-2.80670899 42.05874737 -2.80670899 42.05874737 0 41 C0 27.47 0 13.94 0 0 Z " fill="#54A76B" transform="translate(202,256)"/>
<path d="M0 0 C0.92425781 0.51433594 0.92425781 0.51433594 1.8671875 1.0390625 C-2.49123691 5.63594174 -6.87557491 9.49847392 -12.1328125 13.0390625 C-13.4528125 12.3790625 -14.7728125 11.7190625 -16.1328125 11.0390625 C-16.1328125 10.3790625 -16.1328125 9.7190625 -16.1328125 9.0390625 C-14.8128125 9.0390625 -13.4928125 9.0390625 -12.1328125 9.0390625 C-12.1328125 8.3790625 -12.1328125 7.7190625 -12.1328125 7.0390625 C-11.5140625 6.7915625 -10.8953125 6.5440625 -10.2578125 6.2890625 C-7.99534756 5.21762521 -7.99534756 5.21762521 -7.1328125 3.0390625 C-6.1328125 1.0390625 -6.1328125 1.0390625 -4.2578125 -0.3359375 C-2.1328125 -0.9609375 -2.1328125 -0.9609375 0 0 Z " fill="#30904D" transform="translate(432.1328125,424.9609375)"/>
<path d="M0 0 C-3.23466809 2.81173328 -6.01893638 3.69093652 -10.1875 4.5625 C-11.34378906 4.80871094 -12.50007813 5.05492187 -13.69140625 5.30859375 C-15.32916016 5.65083984 -15.32916016 5.65083984 -17 6 C-18.54193927 6.37387751 -20.08364527 6.74871991 -21.625 7.125 C-26.6943571 8.25781723 -31.82731322 8.63259421 -37 9 C-34.04363255 7.02908837 -32.13893627 6.38895285 -28.73828125 5.5625 C-27.70123047 5.30726563 -26.66417969 5.05203125 -25.59570312 4.7890625 C-24.51224609 4.52867187 -23.42878906 4.26828125 -22.3125 4 C-21.24837891 3.73960937 -20.18425781 3.47921875 -19.08789062 3.2109375 C-17.01092913 2.70292221 -14.93298882 2.19888894 -12.85400391 1.69921875 C-10.34352065 1.08416109 -7.85108199 0.42196092 -5.35546875 -0.25 C-2 -1 -2 -1 0 0 Z " fill="#58B072" transform="translate(302,177)"/>
<path d="M0 0 C0.66 0.66 1.32 1.32 2 2 C1.66226563 2.50789063 1.32453125 3.01578125 0.9765625 3.5390625 C0.53054687 4.22742188 0.08453125 4.91578125 -0.375 5.625 C-0.81585938 6.29789062 -1.25671875 6.97078125 -1.7109375 7.6640625 C-5.2324171 14.04541037 -5.25028469 19.76268477 -5.125 26.875 C-5.11597656 27.84953125 -5.10695312 28.8240625 -5.09765625 29.828125 C-5.07421623 32.21900728 -5.04140442 34.60937261 -5 37 C-7 36 -7 36 -8 33 C-8.83073821 20.2393164 -7.76594017 10.53949022 0 0 Z " fill="#56A96C" transform="translate(148,315)"/>
<path d="M0 0 C0.625 2.0625 0.625 2.0625 1 4 C1.66 4 2.32 4 3 4 C3.33 5.32 3.66 6.64 4 8 C3.34 7.67 2.68 7.34 2 7 C2 6.34 2 5.68 2 5 C-5.03482474 4.76331431 -11.1834265 5.2120463 -18 7 C-18 5.68 -18 4.36 -18 3 C-15.36 3 -12.72 3 -10 3 C-9.67 2.34 -9.34 1.68 -9 1 C-2.49462366 -1.24731183 -2.49462366 -1.24731183 0 0 Z " fill="#5AB575" transform="translate(339,107)"/>
<path d="M0 0 C0.66 0 1.32 0 2 0 C2 0.66 2 1.32 2 2 C2.66 2 3.32 2 4 2 C4.33 1.34 4.66 0.68 5 0 C8.07692308 4.30769231 8.07692308 4.30769231 7.6875 7.8125 C7.460625 8.534375 7.23375 9.25625 7 10 C4.69 9.01 2.38 8.02 0 7 C0 6.34 0 5.68 0 5 C-2.475 4.01 -2.475 4.01 -5 3 C-5 2.67 -5 2.34 -5 2 C-3.35 1.67 -1.7 1.34 0 1 C0 0.67 0 0.34 0 0 Z " fill="#31984F" transform="translate(80,432)"/>
<path d="M0 0 C0.66 0 1.32 0 2 0 C4.4100939 11.31883387 4.10398552 21.52643616 3 33 C2.67 33 2.34 33 2 33 C2 25.41 2 17.82 2 10 C1.34 10 0.68 10 0 10 C0 6.7 0 3.4 0 0 Z " fill="#3F9757" transform="translate(451,110)"/>
<path d="M0 0 C0.66 0.33 1.32 0.66 2 1 C-0.72578395 3.3953859 -2.87119296 4.95382389 -6.3125 6.1875 C-11.48035922 8.19089917 -14.61182041 12.80217749 -18 17 C-18.99 16.67 -19.98 16.34 -21 16 C-15.52120035 8.80089465 -8.70308905 2.90102968 0 0 Z " fill="#D3EFD0" transform="translate(169,302)"/>
<path d="M0 0 C1.35083427 0.0001133 1.35083427 0.0001133 2.72895813 0.00022888 C3.68747177 0.00539017 4.64598541 0.01055145 5.63354492 0.01586914 C7.12116585 0.01799156 7.12116585 0.01799156 8.63883972 0.02015686 C11.7972621 0.02574121 14.95561283 0.03829087 18.11401367 0.05102539 C20.25919494 0.05604241 22.40437732 0.06060497 24.54956055 0.06469727 C29.80023591 0.07570551 35.05086967 0.09242809 40.30151367 0.11352539 C40.30151367 0.44352539 40.30151367 0.77352539 40.30151367 1.11352539 C39.03968262 1.13858154 37.77785156 1.1636377 36.4777832 1.18945312 C31.80742798 1.28344645 27.13722431 1.3836867 22.46704102 1.48583984 C20.44363951 1.52921934 18.42020068 1.57089217 16.39672852 1.61083984 C13.49247983 1.66846947 10.58841956 1.73218479 7.68432617 1.79711914 C6.77595001 1.81383163 5.86757385 1.83054413 4.93167114 1.84776306 C4.09095062 1.86770828 3.2502301 1.8876535 2.3840332 1.90820312 C1.27150681 1.93151955 1.27150681 1.93151955 0.13650513 1.95530701 C-1.79522737 2.00826035 -1.79522737 2.00826035 -3.69848633 3.11352539 C-5.70649088 2.83240475 -7.70862684 2.50284573 -9.69848633 2.11352539 C-9.69848633 1.78352539 -9.69848633 1.45352539 -9.69848633 1.11352539 C-6.40674008 0.37813842 -3.37066741 -0.00949484 0 0 Z " fill="#4CAB65" transform="translate(127.698486328125,47.886474609375)"/>
<path d="M0 0 C6.60753814 -0.37244996 13.06227925 -0.28671103 19 3 C19.33 3.99 19.66 4.98 20 6 C17.69 6 15.38 6 13 6 C13 5.01 13 4.02 13 3 C11.39773045 2.77754607 9.79303233 2.57253331 8.1875 2.375 C7.29417969 2.25898437 6.40085937 2.14296875 5.48046875 2.0234375 C2.74309609 1.76499257 2.74309609 1.76499257 0 4 C-0.99 3.67 -1.98 3.34 -3 3 C-2.01 2.67 -1.02 2.34 0 2 C0 1.34 0 0.68 0 0 Z " fill="#48A861" transform="translate(384,50)"/>
<path d="M0 0 C0.66 0 1.32 0 2 0 C2.33 1.65 2.66 3.3 3 5 C3.66 5 4.32 5 5 5 C5.66 6.65 6.32 8.3 7 10 C7 9.34 7 8.68 7 8 C7.66 8.33 8.32 8.66 9 9 C8.1875 11.9375 8.1875 11.9375 7 15 C6.01 15.33 5.02 15.66 4 16 C3.32815382 13.89748139 2.66269032 11.79292237 2 9.6875 C1.443125 7.92986328 1.443125 7.92986328 0.875 6.13671875 C0 3 0 3 0 0 Z " fill="#308B49" transform="translate(47,386)"/>
<path d="M0 0 C0.66 0.33 1.32 0.66 2 1 C0.62815653 5.06498881 -1.22068459 7.67396561 -4.125 10.8125 C-4.84945312 11.60269531 -5.57390625 12.39289063 -6.3203125 13.20703125 C-6.87460938 13.79871094 -7.42890625 14.39039063 -8 15 C-8.625 13.125 -8.625 13.125 -9 11 C-8.34 10.34 -7.68 9.68 -7 9 C-6.34 9.33 -5.68 9.66 -5 10 C-4.855625 9.071875 -4.71125 8.14375 -4.5625 7.1875 C-4 4 -4 4 -3 1 C-2.01 0.67 -1.02 0.34 0 0 Z " fill="#E6F2DE" transform="translate(214,345)"/>
<path d="M0 0 C0.66 0.33 1.32 0.66 2 1 C1.45859375 1.96873047 1.45859375 1.96873047 0.90625 2.95703125 C-3.8552081 12.62543644 -3.49752238 21.43041342 -3 32 C-5.76030924 29.23969076 -5.31196371 27.34605403 -5.37915039 23.57373047 C-5.37778076 22.72439941 -5.37641113 21.87506836 -5.375 21 C-5.37556396 20.14164551 -5.37612793 19.28329102 -5.37670898 18.39892578 C-5.26709583 12.07250988 -4.75275272 4.75275272 0 0 Z " fill="#D6F1D5" transform="translate(147,320)"/>
<path d="M0 0 C0.33 1.32 0.66 2.64 1 4 C-2.63306058 6.42204038 -4.31819023 6.23302891 -8.63671875 6.1953125 C-10.58481445 6.18564453 -10.58481445 6.18564453 -12.57226562 6.17578125 C-13.94401307 6.1590706 -15.31575786 6.14214071 -16.6875 6.125 C-18.07095718 6.11496674 -19.45442127 6.10584149 -20.83789062 6.09765625 C-24.22543452 6.07404967 -27.61263072 6.04112037 -31 6 C-31 5.67 -31 5.34 -31 5 C-27.48323032 4.20799201 -24.18744246 3.85794547 -20.5859375 3.7890625 C-19.57789063 3.76070313 -18.56984375 3.73234375 -17.53125 3.703125 C-15.41945372 3.65085281 -13.30744325 3.60663907 -11.1953125 3.5703125 C-10.18984375 3.539375 -9.184375 3.5084375 -8.1484375 3.4765625 C-7.23239746 3.45674316 -6.31635742 3.43692383 -5.37255859 3.41650391 C-2.61803567 2.93294596 -1.72169245 2.14836965 0 0 Z " fill="#D1F2D3" transform="translate(327,269)"/>
<path d="M0 0 C0.82757813 0.16242188 1.65515625 0.32484375 2.5078125 0.4921875 C6.31867564 1.04633986 10.03474642 1.15045623 13.875 1.125 C14.93074219 1.12209961 14.93074219 1.12209961 16.0078125 1.11914062 C20.75772193 1.07955805 25.31909339 0.7801511 30 0 C30 0.66 30 1.32 30 2 C24.35135324 4.46950888 19.31506154 4.07116888 13.3125 3.6875 C11.8884082 3.61499023 11.8884082 3.61499023 10.43554688 3.54101562 C3.45165019 3.15055006 3.45165019 3.15055006 0 2 C0 1.34 0 0.68 0 0 Z " fill="#67AF79" transform="translate(160,369)"/>
<path d="M0 0 C4.88049925 3.9419417 9.0580583 8.11950075 13 13 C10 14 10 14 7.5 12.9375 C4.50679331 10.61776481 3.52957462 8.42333368 2 5 C1.34 4.34 0.68 3.68 0 3 C0 2.01 0 1.02 0 0 Z " fill="#3F965A" transform="translate(425,66)"/>
<path d="M0 0 C1.32 0.33 2.64 0.66 4 1 C1.69 3.97 -0.62 6.94 -3 10 C-3.66 9.67 -4.32 9.34 -5 9 C-5.66 9.66 -6.32 10.32 -7 11 C-7.66 10.34 -8.32 9.68 -9 9 C-7.59921602 7.46452525 -6.17879097 5.94694852 -4.75 4.4375 C-3.56664063 3.16712891 -3.56664063 3.16712891 -2.359375 1.87109375 C-1.58078125 1.25363281 -0.8021875 0.63617188 0 0 Z " fill="#3E9754" transform="translate(73,67)"/>
<path d="M0 0 C-0.33 0.66 -0.66 1.32 -1 2 C-1.928125 2 -2.85625 2 -3.8125 2 C-7.14399361 2.6455008 -7.14399361 2.6455008 -8.28515625 5.28515625 C-9.28590683 7.83545611 -10.19242419 10.38250429 -11 13 C-11.33 13 -11.66 13 -12 13 C-12.08121924 11.39667209 -12.13929134 9.79215974 -12.1875 8.1875 C-12.22230469 7.29417969 -12.25710937 6.40085938 -12.29296875 5.48046875 C-12 3 -12 3 -10.7109375 1.22265625 C-7.59504694 -1.00399614 -3.45222553 -1.72611277 0 0 Z " fill="#50AD6B" transform="translate(233,196)"/>
<path d="M0 0 C1 1 1 1 1.09765625 3.50390625 C1.08605469 4.51324219 1.07445312 5.52257812 1.0625 6.5625 C1.05347656 7.57441406 1.04445313 8.58632812 1.03515625 9.62890625 C1.02355469 10.41136719 1.01195312 11.19382813 1 12 C0.67 12 0.34 12 0 12 C-0.33 9.36 -0.66 6.72 -1 4 C-1.99 4 -2.98 4 -4 4 C-4 3.34 -4 2.68 -4 2 C-4.67546875 2.15597656 -5.3509375 2.31195313 -6.046875 2.47265625 C-6.93890625 2.66730469 -7.8309375 2.86195313 -8.75 3.0625 C-9.63171875 3.25972656 -10.5134375 3.45695313 -11.421875 3.66015625 C-13.98679028 3.99825872 -15.57091639 3.81158635 -18 3 C-6.31690141 -0.54929577 -6.31690141 -0.54929577 0 0 Z " fill="#5DB376" transform="translate(325,171)"/>
<path d="M0 0 C-7.0911763 5.37951306 -17.42737626 5.2933629 -26 6 C-22.48252772 3.65501848 -19.04997617 2.88513677 -15 1.9375 C-3.00609756 -0.93292683 -3.00609756 -0.93292683 0 0 Z " fill="#C6ECC9" transform="translate(241,136)"/>
<path d="M0 0 C0.66 0.33 1.32 0.66 2 1 C-0.51066469 4.05906926 -2.90059933 4.75191278 -6.6875 5.6875 C-7.68136719 5.93886719 -8.67523438 6.19023437 -9.69921875 6.44921875 C-10.45847656 6.63097656 -11.21773437 6.81273437 -12 7 C-12.66 5.68 -13.32 4.36 -14 3 C-13.11248047 2.92652344 -13.11248047 2.92652344 -12.20703125 2.8515625 C-7.74890955 2.42975001 -4.14903887 1.76019831 0 0 Z " fill="#4DB16B" transform="translate(223,136)"/>
<path d="M0 0 C0.66 0.33 1.32 0.66 2 1 C0.37660195 2.70884005 -1.29319053 4.37446717 -3 6 C-3.66 6 -4.32 6 -5 6 C-5.33 7.32 -5.66 8.64 -6 10 C-6.66 10 -7.32 10 -8 10 C-8 10.66 -8 11.32 -8 12 C-8.66 12 -9.32 12 -10 12 C-10.33 12.66 -10.66 13.32 -11 14 C-11.33 13.34 -11.66 12.68 -12 12 C-8.27653164 7.57905197 -4.70478962 3.42166518 0 0 Z " fill="#DBF2D7" transform="translate(284,280)"/>
<path d="M0 0 C0.33 1.32 0.66 2.64 1 4 C-1.64 3.34 -4.28 2.68 -7 2 C-7.33 3.32 -7.66 4.64 -8 6 C-8 5.34 -8 4.68 -8 4 C-9.98 4 -11.96 4 -14 4 C-13.67 3.01 -13.34 2.02 -13 1 C-8.61414671 0.29826347 -4.44209357 -0.10834375 0 0 Z " fill="#42B361" transform="translate(124,50)"/>
<path d="M0 0 C0.33 0 0.66 0 1 0 C1 1.98 1 3.96 1 6 C1.66 6.33 2.32 6.66 3 7 C1.625 9 1.625 9 0 11 C-0.66 11 -1.32 11 -2 11 C-2.33 11.99 -2.66 12.98 -3 14 C-3.33 14 -3.66 14 -4 14 C-3.53328373 8.58609132 -2.75702189 4.79482068 0 0 Z " fill="#409E59" transform="translate(53,93)"/>
<path d="M0 0 C2 2 2 2 2 5 C2.33 4.34 2.66 3.68 3 3 C3.66 3 4.32 3 5 3 C5.33 4.98 5.66 6.96 6 9 C3 9 3 9 1.39453125 7.46875 C0.87246094 6.8190625 0.35039063 6.169375 -0.1875 5.5 C-0.71730469 4.8503125 -1.24710937 4.200625 -1.79296875 3.53125 C-2.19128906 3.0259375 -2.58960937 2.520625 -3 2 C-2.01 1.34 -1.02 0.68 0 0 Z " fill="#318E4C" transform="translate(67,421)"/>
<path d="M0 0 C0.33 1.32 0.66 2.64 1 4 C-2.15314785 6.10209857 -2.86103081 6.2434761 -6.44921875 6.1953125 C-7.72055664 6.18564453 -7.72055664 6.18564453 -9.01757812 6.17578125 C-9.89865234 6.15902344 -10.77972656 6.14226562 -11.6875 6.125 C-12.58017578 6.11597656 -13.47285156 6.10695313 -14.39257812 6.09765625 C-16.59532314 6.07409748 -18.79752588 6.04120329 -21 6 C-21 5.67 -21 5.34 -21 5 C-14.73 4.67 -8.46 4.34 -2 4 C-1.34 2.68 -0.68 1.36 0 0 Z " fill="#63AF77" transform="translate(326,267)"/>
<path d="M0 0 C-1.98 0.33 -3.96 0.66 -6 1 C-6 1.66 -6 2.32 -6 3 C-9.78187881 4.83691257 -11.94568308 5.15837626 -16 4 C-14 1 -14 1 -11.7578125 0.234375 C-10.45457031 -0.00539062 -10.45457031 -0.00539062 -9.125 -0.25 C-8.26132812 -0.42015625 -7.39765625 -0.5903125 -6.5078125 -0.765625 C-4.02366804 -0.99778803 -2.35380006 -0.76635351 0 0 Z " fill="#55B371" transform="translate(265,187)"/>
<path d="M0 0 C0.33 0 0.66 0 1 0 C1.02891949 4.29165262 1.04677118 8.58328036 1.0625 12.875 C1.07087891 14.09832031 1.07925781 15.32164062 1.08789062 16.58203125 C1.09111328 17.74863281 1.09433594 18.91523438 1.09765625 20.1171875 C1.10289307 21.19597168 1.10812988 22.27475586 1.11352539 23.38623047 C1 26 1 26 0 28 C-0.66 28 -1.32 28 -2 28 C-1.84660156 27.24460937 -1.69320312 26.48921875 -1.53515625 25.7109375 C-0.8112152 20.6909083 -0.63680847 15.68939556 -0.4375 10.625 C-0.39431641 9.60277344 -0.35113281 8.58054687 -0.30664062 7.52734375 C-0.20112208 5.01834712 -0.09900787 2.50926057 0 0 Z " fill="#E0F5DA" transform="translate(219,312)"/>
<path d="M0 0 C-0.1875 1.875 -0.1875 1.875 -1 4 C-3.5625 5.25 -3.5625 5.25 -6 6 C-6 4.68 -6 3.36 -6 2 C-6.66 2 -7.32 2 -8 2 C-8 1.34 -8 0.68 -8 0 C-5.13822943 -1.43088528 -3.06624227 -0.59991697 0 0 Z " fill="#43A961" transform="translate(96,57)"/>
<path d="M0 0 C0 0.33 0 0.66 0 1 C-1.65 1 -3.3 1 -5 1 C-5 1.66 -5 2.32 -5 3 C-6.8253125 3.2165625 -6.8253125 3.2165625 -8.6875 3.4375 C-11.15532135 3.73451213 -13.45097563 4.107842 -15.875 4.6875 C-16.57625 4.790625 -17.2775 4.89375 -18 5 C-18.66 4.34 -19.32 3.68 -20 3 C-17.79344925 2.49219106 -15.58466395 1.99408635 -13.375 1.5 C-11.53035156 1.08234375 -11.53035156 1.08234375 -9.6484375 0.65625 C-6.32847772 0.05908379 -3.36091549 -0.12409534 0 0 Z " fill="#3D8E4E" transform="translate(123,48)"/>
<path d="M0 0 C0.66 0 1.32 0 2 0 C2.91010388 5.66286862 3.09058743 10.34877422 2 16 C1.34 16.33 0.68 16.66 0 17 C0 11.39 0 5.78 0 0 Z " fill="#429858" transform="translate(45,122)"/>
<path d="M0 0 C1.28724332 3.98687862 0.68008721 6.40722103 -0.83203125 10.2265625 C-2 12 -2 12 -5.6875 13.5 C-6.780625 13.665 -7.87375 13.83 -9 14 C-8.60167969 13.49210937 -8.20335937 12.98421875 -7.79296875 12.4609375 C-4.71433825 8.46096502 -2.08404386 4.63120857 0 0 Z " fill="#59A970" transform="translate(216,345)"/>
<path d="M0 0 C1.26650391 0.00966797 1.26650391 0.00966797 2.55859375 0.01953125 C3.43128906 0.03628906 4.30398438 0.05304688 5.203125 0.0703125 C6.53537109 0.08384766 6.53537109 0.08384766 7.89453125 0.09765625 C10.08100558 0.12116673 12.26692594 0.15402751 14.453125 0.1953125 C14.453125 0.5253125 14.453125 0.8553125 14.453125 1.1953125 C13.63070313 1.24429687 12.80828125 1.29328125 11.9609375 1.34375 C4.97684316 1.8115069 -1.72722235 2.60970477 -8.546875 4.1953125 C-8.546875 3.5353125 -8.546875 2.8753125 -8.546875 2.1953125 C-5.55561181 0.47325062 -3.44001787 -0.04648673 0 0 Z " fill="#49A764" transform="translate(303.546875,270.8046875)"/>
<path d="M0 0 C1.37478516 0.01740234 1.37478516 0.01740234 2.77734375 0.03515625 C3.69644531 0.04417969 4.61554688 0.05320312 5.5625 0.0625 C6.27277344 0.07410156 6.98304688 0.08570312 7.71484375 0.09765625 C7.71484375 0.42765625 7.71484375 0.75765625 7.71484375 1.09765625 C0.61699462 2.9153981 -5.93597283 4.52996116 -13.28515625 4.09765625 C-9.83456939 1.79726501 -7.34420123 1.62382875 -3.28515625 1.09765625 C-2.28515625 0.09765625 -2.28515625 0.09765625 0 0 Z " fill="#59B271" transform="translate(262.28515625,126.90234375)"/>
<path d="M0 0 C0.66 0.66 1.32 1.32 2 2 C-3.10334017 3.905247 -7.46342706 5.42589023 -13 5 C-12.67 4.01 -12.34 3.02 -12 2 C-11.21753906 1.93941406 -10.43507813 1.87882812 -9.62890625 1.81640625 C-8.61699219 1.73261719 -7.60507812 1.64882812 -6.5625 1.5625 C-5.55316406 1.48128906 -4.54382813 1.40007812 -3.50390625 1.31640625 C-1.06359221 1.26788532 -1.06359221 1.26788532 0 0 Z " fill="#56B170" transform="translate(315,113)"/>
<path d="M0 0 C0.99 0.66 1.98 1.32 3 2 C2.67 2.66 2.34 3.32 2 4 C1.34 4 0.68 4 0 4 C-0.66 5.65 -1.32 7.3 -2 9 C-4.35953094 6.64046906 -4.49141413 5.22104383 -5 2 C-4.360625 1.855625 -3.72125 1.71125 -3.0625 1.5625 C-1.02454854 1.18992819 -1.02454854 1.18992819 0 0 Z " fill="#308D49" transform="translate(437,416)"/>
<path d="M0 0 C-3.84344382 2.24538034 -7.9638019 3.1026736 -12.25 4.125 C-12.99507813 4.30675781 -13.74015625 4.48851563 -14.5078125 4.67578125 C-16.3375026 5.12147499 -18.16861575 5.56131959 -20 6 C-17.03749913 2.57046958 -15.03216897 1.41952046 -10.5625 0.75 C-9.17224609 0.52570313 -9.17224609 0.52570313 -7.75390625 0.296875 C-5.14251003 0.01536278 -2.62387535 -0.05714429 0 0 Z " fill="#62B57B" transform="translate(292,121)"/>
<path d="M0 0 C-1.79090758 1.1470194 -3.58274997 2.29257935 -5.375 3.4375 C-6.87160156 4.39462891 -6.87160156 4.39462891 -8.3984375 5.37109375 C-11 7 -11 7 -13 8 C-12.67 6.68 -12.34 5.36 -12 4 C-11.34 4 -10.68 4 -10 4 C-10 3.34 -10 2.68 -10 2 C-8.68 2 -7.36 2 -6 2 C-6 1.34 -6 0.68 -6 0 C-3 -1 -3 -1 0 0 Z " fill="#5DAD72" transform="translate(291,277)"/>
<path d="M0 0 C0.99 0 1.98 0 3 0 C5.07639763 2.87501211 6.3543999 5.51375944 7 9 C6.67 8.34 6.34 7.68 6 7 C5.01 7.33 4.02 7.66 3 8 C0.9375 6.25 0.9375 6.25 -1 4 C-0.75 1.75 -0.75 1.75 0 0 Z " fill="#44B164" transform="translate(422,66)"/>
<path d="M0 0 C0.33 0 0.66 0 1 0 C1.04898437 0.92941406 1.09796875 1.85882813 1.1484375 2.81640625 C1.69677146 12.07660933 1.69677146 12.07660933 4 21 C2.015625 20.07421875 2.015625 20.07421875 0 18 C-0.52339018 14.93166378 -0.37472825 11.91391602 -0.25 8.8125 C-0.23195313 7.96751953 -0.21390625 7.12253906 -0.1953125 6.25195312 C-0.14820586 4.16748427 -0.07646233 2.08359856 0 0 Z " fill="#62AB74" transform="translate(264,309)"/>
<path d="M0 0 C0.33 0.99 0.66 1.98 1 3 C-2.63 3.33 -6.26 3.66 -10 4 C-9.67 3.01 -9.34 2.02 -9 1 C-2.63157895 -1.31578947 -2.63157895 -1.31578947 0 0 Z " fill="#42B567" transform="translate(246,130)"/>
<path d="M0 0 C-3.40083079 1.92184541 -6.76314984 2.76917369 -10.5625 3.625 C-11.69816406 3.88539063 -12.83382812 4.14578125 -14.00390625 4.4140625 C-17 5 -17 5 -20 5 C-20 4.34 -20 3.68 -20 3 C-17 2 -17 2 -14 3 C-13.67 2.34 -13.34 1.68 -13 1 C-8.62669456 0.27111576 -4.4383722 -0.13869913 0 0 Z " fill="#DCF3D7" transform="translate(261,186)"/>
<path d="M0 0 C0.99 0.99 1.98 1.98 3 3 C1.1875 5.5 1.1875 5.5 -1 8 C-1.99 8 -2.98 8 -4 8 C-4.33 7.34 -4.66 6.68 -5 6 C-4.54625 5.566875 -4.0925 5.13375 -3.625 4.6875 C-1.79975666 2.89201658 -1.79975666 2.89201658 0 0 Z " fill="#2E944A" transform="translate(77,425)"/>
<path d="M0 0 C2.86724686 0.57344937 3.8614515 0.8614515 6 3 C0.25 6 0.25 6 -2 6 C-1.34 4.02 -0.68 2.04 0 0 Z " fill="#31934E" transform="translate(406,440)"/>
<path d="M0 0 C0.66 0 1.32 0 2 0 C2 0.99 2 1.98 2 3 C3.98 2.67 5.96 2.34 8 2 C8.33 3.65 8.66 5.3 9 7 C7.35 6.67 5.7 6.34 4 6 C4 5.34 4 4.68 4 4 C2.35 3.67 0.7 3.34 -1 3 C-0.67 2.01 -0.34 1.02 0 0 Z " fill="#319B4F" transform="translate(95,440)"/>
<path d="M0 0 C0.99 0.33 1.98 0.66 3 1 C2.67 1.99 2.34 2.98 2 4 C2.66 4 3.32 4 4 4 C3.67 4.66 3.34 5.32 3 6 C0.36 4.68 -2.28 3.36 -5 2 C-4.01 1.67 -3.02 1.34 -2 1 C-1.34 0.67 -0.68 0.34 0 0 Z " fill="#DCEED7" transform="translate(157,363)"/>
<path d="M0 0 C0.33 0 0.66 0 1 0 C1 5.94 1 11.88 1 18 C-0.32 18.33 -1.64 18.66 -3 19 C-2.01 17.515 -2.01 17.515 -1 16 C-0.69933846 13.24582682 -0.49074701 10.57354853 -0.375 7.8125 C-0.33632812 7.06291016 -0.29765625 6.31332031 -0.2578125 5.54101562 C-0.16371784 3.69440801 -0.08077681 1.8472381 0 0 Z " fill="#E0F4D8" transform="translate(204,281)"/>
<path d="M0 0 C0.598125 0.226875 1.19625 0.45375 1.8125 0.6875 C1.02875 1.409375 0.245 2.13125 -0.5625 2.875 C-3.03162438 5.52049041 -4.12010278 7.29123611 -5.1875 10.6875 C-5.5175 10.6875 -5.8475 10.6875 -6.1875 10.6875 C-5.58266129 3.30846774 -5.58266129 3.30846774 -3.875 0.625 C-2.1875 -0.3125 -2.1875 -0.3125 0 0 Z " fill="#57AD6F" transform="translate(209.1875,143.3125)"/>
<path d="M0 0 C0 0.99 0 1.98 0 3 C-2.97 3.66 -5.94 4.32 -9 5 C-8.34 4.67 -7.68 4.34 -7 4 C-7 3.34 -7 2.68 -7 2 C-4 0 -4 0 0 0 Z " fill="#2E8145" transform="translate(401,445)"/>
<path d="M0 0 C2.8125 -0.25 2.8125 -0.25 6 0 C7.875 2 7.875 2 9 4 C7.68 4.33 6.36 4.66 5 5 C5 4.34 5 3.68 5 3 C2.525 2.01 2.525 2.01 0 1 C0 0.67 0 0.34 0 0 Z " fill="#308349" transform="translate(75,434)"/>
<path d="M0 0 C-4.48074195 3.36055646 -7.60550707 3.27429625 -13 3 C-4.20833333 -1.55864198 -4.20833333 -1.55864198 0 0 Z " fill="#D4F0D3" transform="translate(241,136)"/>
<path d="M0 0 C0 0.66 0 1.32 0 2 C-2.95664519 3.4783226 -5.74229737 3.06032783 -9 3 C-6.38997624 -0.48003168 -4.1689578 -0.27793052 0 0 Z " fill="#DAF3D5" transform="translate(323,114)"/>
<path d="M0 0 C5.53846154 -0.36923077 5.53846154 -0.36923077 7.875 1.5 C8.24625 1.995 8.6175 2.49 9 3 C7.68 3 6.36 3 5 3 C5 3.66 5 4.32 5 5 C4.34 5 3.68 5 3 5 C2.67 4.01 2.34 3.02 2 2 C1.34 1.34 0.68 0.68 0 0 Z " fill="#3E9A59" transform="translate(407,57)"/>
<path d="M0 0 C2.97 0.33 5.94 0.66 9 1 C7.68 1.33 6.36 1.66 5 2 C5 2.66 5 3.32 5 4 C3.68 4.33 2.36 4.66 1 5 C0.67 3.35 0.34 1.7 0 0 Z " fill="#38884C" transform="translate(379,48)"/>
<path d="M0 0 C0.66 1.32 1.32 2.64 2 4 C-0.97 6.475 -0.97 6.475 -4 9 C-3.67 7.02 -3.34 5.04 -3 3 C-2.01 3.33 -1.02 3.66 0 4 C0 2.68 0 1.36 0 0 Z " fill="#DCF0D9" transform="translate(209,351)"/>
<path d="M0 0 C4.34464536 0.60825035 8.67551867 1.26167392 13 2 C13 2.33 13 2.66 13 3 C9.37 3 5.74 3 2 3 C2 2.34 2 1.68 2 1 C1.34 0.67 0.68 0.34 0 0 Z " fill="#51A46A" transform="translate(281,343)"/>
<path d="M0 0 C2.625 0.375 2.625 0.375 5 1 C5 1.99 5 2.98 5 4 C2.69 3.34 0.38 2.68 -2 2 C-1.34 1.34 -0.68 0.68 0 0 Z " fill="#2F8347" transform="translate(89,441)"/>
<path d="M0 0 C2.625 -0.1875 2.625 -0.1875 5 0 C3.35 1.98 1.7 3.96 0 6 C-0.66 5.01 -1.32 4.02 -2 3 C-1.34 2.01 -0.68 1.02 0 0 Z " fill="#D7EBCE" transform="translate(329,329)"/>
<path d="M0 0 C0.66 0.33 1.32 0.66 2 1 C1.67 3.97 1.34 6.94 1 10 C-1.35953094 7.64046906 -1.49141413 6.22104383 -2 3 C-1.34 3 -0.68 3 0 3 C0 2.01 0 1.02 0 0 Z " fill="#48AF64" transform="translate(450,106)"/>
<path d="M0 0 C0 0.33 0 0.66 0 1 C-1.670625 1.2165625 -1.670625 1.2165625 -3.375 1.4375 C-6.82142047 1.78372035 -6.82142047 1.78372035 -9 3 C-11.00800456 2.71887936 -13.01014051 2.38932033 -15 2 C-15 1.67 -15 1.34 -15 1 C-10.03926578 -0.32286246 -5.08888488 -0.08893197 0 0 Z " fill="#5EB774" transform="translate(133,48)"/>
<path d="M0 0 C0.99 0.33 1.98 0.66 3 1 C-0.465 3.97 -0.465 3.97 -4 7 C-3.67 5.35 -3.34 3.7 -3 2 C-2.01 2 -1.02 2 0 2 C0 1.34 0 0.68 0 0 Z " fill="#2B773E" transform="translate(431,425)"/>
<path d="M0 0 C1.32 0.33 2.64 0.66 4 1 C2.35 2.65 0.7 4.3 -1 6 C-1.33 4.68 -1.66 3.36 -2 2 C-1.34 2 -0.68 2 0 2 C0 1.34 0 0.68 0 0 Z " fill="#44B065" transform="translate(60,83)"/>
<path d="M0 0 C2.64 0.33 5.28 0.66 8 1 C5.42786866 2.61949011 4.32330841 3.04408751 1.25 2.625 C0.5075 2.41875 -0.235 2.2125 -1 2 C-0.67 1.34 -0.34 0.68 0 0 Z " fill="#51AC6B" transform="translate(165,300)"/>
<path d="" fill="#000000" transform="translate(0,0)"/>
<path d="" fill="#000000" transform="translate(0,0)"/>
<path d="" fill="#000000" transform="translate(0,0)"/>
<path d="" fill="#000000" transform="translate(0,0)"/>
<path d="" fill="#000000" transform="translate(0,0)"/>
<path d="" fill="#000000" transform="translate(0,0)"/>
<path d="" fill="#000000" transform="translate(0,0)"/>
<path d="" fill="#000000" transform="translate(0,0)"/>
<path d="" fill="#000000" transform="translate(0,0)"/>
<path d="" fill="#000000" transform="translate(0,0)"/>
<path d="" fill="#000000" transform="translate(0,0)"/>
<path d="" fill="#000000" transform="translate(0,0)"/>
<path d="" fill="#000000" transform="translate(0,0)"/>
<path d="" fill="#000000" transform="translate(0,0)"/>
<path d="" fill="#000000" transform="translate(0,0)"/>
<path d="" fill="#000000" transform="translate(0,0)"/>
<path d="" fill="#000000" transform="translate(0,0)"/>
</svg>
