<?xml version="1.0" encoding="UTF-8"?>
<svg version="1.1" xmlns="http://www.w3.org/2000/svg" width="512" height="512">
<path d="M0 0 C1.05630639 -0.00226556 2.11261278 -0.00453111 3.20092845 -0.00686532 C6.71646282 -0.01316109 10.2319582 -0.01237882 13.74749756 -0.0115509 C16.27794952 -0.01454515 18.80840102 -0.01794829 21.33885193 -0.02172852 C27.48505102 -0.02963089 33.63123599 -0.03278199 39.77743968 -0.03334089 C44.77755913 -0.03381747 49.77767543 -0.03587926 54.77779388 -0.03904152 C68.98021457 -0.04783975 83.18262773 -0.05246218 97.38505116 -0.05171105 C98.5315007 -0.05165111 98.5315007 -0.05165111 99.70111084 -0.05158997 C100.84897364 -0.05152864 100.84897364 -0.05152864 102.02002558 -0.05146609 C114.41597599 -0.05105981 126.81189599 -0.06062683 139.20783761 -0.07472833 C151.96154391 -0.08912139 164.71523541 -0.09599691 177.46895003 -0.09513456 C184.6188827 -0.09480361 191.76878349 -0.09750581 198.9187088 -0.10831261 C205.64598733 -0.11841614 212.37318763 -0.11805244 219.1004734 -0.11079597 C221.56181499 -0.10975383 224.02316083 -0.1120909 226.48449516 -0.11815643 C250.30324254 -0.17302685 250.30324254 -0.17302685 262.059021 2.13371277 C262.78779575 2.26799588 263.51657051 2.402279 264.26742935 2.54063129 C285.14360589 6.71157603 303.05185446 19.7788634 315.1449585 37.12590027 C326.39420803 54.56432799 329.21846036 72.4565245 329.19946289 92.83740234 C329.20391957 94.36567415 329.20391957 94.36567415 329.20846629 95.92482013 C329.21707496 99.3080175 329.21865486 102.69117917 329.22015381 106.0743866 C329.22478764 108.51318943 329.22981305 110.95199155 329.23519897 113.39079285 C329.24827293 119.99677903 329.2547963 126.60275787 329.25920963 133.20875382 C329.26198476 137.34530339 329.2662244 141.48185066 329.27071381 145.61839867 C329.28289859 157.10436385 329.29319859 168.59032721 329.2965889 180.07629871 C329.29680846 180.80974844 329.29702803 181.54319817 329.29725425 182.29887364 C329.29747253 183.03393638 329.2976908 183.76899912 329.2979157 184.52633649 C329.29835914 186.01549773 329.2988057 187.50465896 329.29925537 188.99382019 C329.2994768 189.73247315 329.29969823 190.47112611 329.29992637 191.2321625 C329.30386671 203.17646972 329.3213009 215.12071566 329.34461489 227.06499926 C329.36843858 239.37129118 329.38079577 251.6775525 329.38195682 263.98386782 C329.38286756 270.8758435 329.38846628 277.76773934 329.40677643 284.65969276 C329.42396868 291.15309556 329.42534858 297.64638812 329.41663742 304.13980865 C329.41587406 306.50587813 329.42011565 308.87195614 329.43009567 311.23800468 C329.55254933 342.11222608 326.60072858 370.04233145 304.14105225 393.12980652 C293.06747897 404.13371277 293.06747897 404.13371277 289.059021 404.13371277 C288.729021 404.79371277 288.399021 405.45371277 288.059021 406.13371277 C281.2348915 410.07115466 273.84122932 412.73231246 266.309021 414.94621277 C265.31237427 415.25619202 265.31237427 415.25619202 264.29559326 415.57243347 C248.79142338 419.86881322 231.03619205 418.29278467 215.09832764 418.31071472 C212.62259326 418.31699351 210.1468598 418.32364151 207.67112732 418.33062744 C200.29950159 418.34968814 192.92788398 418.36042419 185.55624095 418.36935523 C182.76981323 418.37287826 179.98338659 418.37702252 177.19695978 418.38119489 C164.8789584 418.39963048 152.56095691 418.41537897 140.24294376 418.42309284 C137.2435665 418.42500204 134.24418925 418.4269225 131.24481201 418.42887878 C130.49953097 418.42936252 129.75424994 418.42984626 128.98638462 418.43034466 C116.90717376 418.4386495 104.82806174 418.46400894 92.74889404 418.49645946 C80.29779037 418.52963256 67.84673687 418.54755015 55.39558882 418.55073708 C48.42443539 418.5528909 41.4534269 418.56147453 34.48231697 418.58719826 C27.92480386 418.61134402 21.36750319 418.61466728 14.80993843 418.60443687 C12.4163781 418.60394428 10.02280445 418.61018227 7.62928391 418.62399292 C-11.93507171 418.73048567 -28.58434844 415.7399338 -46.940979 409.13371277 C-46.940979 408.47371277 -46.940979 407.81371277 -46.940979 407.13371277 C-48.240354 406.76246277 -48.240354 406.76246277 -49.565979 406.38371277 C-65.65688229 400.42411896 -78.19499943 383.54937131 -85.4331665 368.68840027 C-93.21747735 350.33678662 -93.38344842 331.35284456 -93.3291626 311.70231628 C-93.33323706 309.19997429 -93.3385838 306.69763409 -93.34509277 304.19529724 C-93.35726525 298.15053725 -93.35560424 292.10593295 -93.34685485 286.06117935 C-93.3400322 281.1404569 -93.33918117 276.21976568 -93.3424263 271.29903984 C-93.342886 270.59412077 -93.3433457 269.8892017 -93.34381933 269.16292144 C-93.34477867 267.7301162 -93.34575131 266.29731098 -93.3467371 264.86450576 C-93.35525747 251.48169715 -93.34551017 238.09895056 -93.329336 224.71615212 C-93.31593882 213.27775265 -93.31826251 201.83944458 -93.33209229 190.40104675 C-93.34821282 177.06208784 -93.35443076 163.72318307 -93.34525549 150.38421577 C-93.34430002 148.95687768 -93.34335691 147.52953957 -93.3424263 146.10220146 C-93.34196347 145.40024413 -93.34150065 144.6982868 -93.3410238 143.97505804 C-93.33845301 139.07100064 -93.34276323 134.1669781 -93.34986496 129.2629261 C-93.35924699 122.63972139 -93.35239525 116.01666063 -93.33518219 109.39346313 C-93.33125161 106.97817708 -93.33229167 104.56287638 -93.33897018 102.14759636 C-93.41143078 73.25458539 -90.35287641 48.72916135 -70.940979 26.13371277 C-70.280979 26.13371277 -69.620979 26.13371277 -68.940979 26.13371277 C-68.940979 25.47371277 -68.940979 24.81371277 -68.940979 24.13371277 C-66.11315268 21.58802785 -62.99234594 19.40369239 -59.940979 17.13371277 C-59.40343994 16.69672058 -58.86590088 16.25972839 -58.31207275 15.80949402 C-41.90578218 2.9157774 -20.19098572 -0.03226553 0 0 Z " fill="#37B85A" transform="translate(137.94097900390625,46.86628723144531)"/>
<path d="M0 0 C1.2953215 -0.00630432 2.59064301 -0.01260864 3.92521667 -0.019104 C5.34247981 -0.01552233 6.75974171 -0.0114199 8.17700195 -0.00683594 C9.63328618 -0.00818381 11.08956997 -0.01012537 12.54585266 -0.01263428 C15.60157546 -0.01558445 18.65718141 -0.0112945 21.71289062 -0.00195312 C25.61208096 0.00939086 29.5109944 0.00291364 33.41017437 -0.00909805 C36.42065982 -0.01636289 39.43108087 -0.01400675 42.44156837 -0.00884247 C43.87794846 -0.00751609 45.31433456 -0.00911792 46.75070763 -0.01380157 C54.06407111 -0.03240123 60.73611597 0.0110783 67.7277832 2.25878906 C68.9652832 2.65066406 70.2027832 3.04253906 71.4777832 3.44628906 C80.86864254 7.18044966 88.1493835 11.7738656 94.10668945 20.02441406 C95.60092091 22.22524686 95.60092091 22.22524686 97.2512207 23.71191406 C107.00858137 33.93391096 107.25058385 49.17616289 106.9855957 62.37988281 C106.60361853 72.11644232 104.79173081 81.3795758 100.7277832 90.25878906 C98.4152832 90.50878906 98.4152832 90.50878906 95.7277832 90.25878906 C92.36404447 87.39338199 92.06624539 83.56195175 91.26293945 79.43066406 C90.58608997 76.68374208 89.21332521 74.64857403 87.7277832 72.25878906 C87.0402832 68.94628906 87.0402832 68.94628906 86.7277832 66.25878906 C86.0677832 66.25878906 85.4077832 66.25878906 84.7277832 66.25878906 C84.3771582 65.39253906 84.0265332 64.52628906 83.6652832 63.63378906 C80.5747387 58.25025992 77.00636868 55.09826792 71.1652832 52.94628906 C58.05335563 50.45275176 44.15003897 50.97298582 30.8527832 50.69628906 C28.89314083 50.65298294 26.93350531 50.60936535 24.97387695 50.56542969 C20.22525033 50.45963063 15.47655127 50.35802753 10.7277832 50.25878906 C10.73147038 51.04747785 10.73515755 51.83616663 10.73895645 52.64875507 C10.82743399 71.87157237 10.89355426 91.09434882 10.93503189 110.31732655 C10.95562519 119.61356244 10.98368375 128.90966211 11.02954102 138.20581055 C11.06950801 146.31177719 11.09523949 154.41764513 11.10413718 162.52370757 C11.10933529 166.8127262 11.12148472 171.10146256 11.15070343 175.3903904 C11.17802876 179.43449143 11.18619399 183.47819623 11.18021393 187.52238083 C11.18130657 188.99972251 11.18915814 190.47707865 11.2046051 191.95433998 C11.31838341 203.40552954 9.14270486 212.241184 3.7277832 222.25878906 C3.0677832 222.25878906 2.4077832 222.25878906 1.7277832 222.25878906 C1.4802832 222.81566406 1.2327832 223.37253906 0.9777832 223.94628906 C-3.90319407 232.97609701 -13.04537511 238.44248456 -22.5222168 241.75878906 C-36.24593783 245.4195424 -48.52023329 243.86911692 -60.8659668 236.76660156 C-63.07720673 235.3440372 -65.1800161 233.8500403 -67.2722168 232.25878906 C-68.18680664 231.58976562 -68.18680664 231.58976562 -69.11987305 230.90722656 C-71.47296772 229.09373043 -73.08200573 227.76148975 -74.1472168 224.94628906 C-74.1884668 224.38941406 -74.2297168 223.83253906 -74.2722168 223.25878906 C-74.9322168 223.25878906 -75.5922168 223.25878906 -76.2722168 223.25878906 C-77.2622168 218.30878906 -77.2622168 218.30878906 -78.2722168 213.25878906 C-78.9322168 213.25878906 -79.5922168 213.25878906 -80.2722168 213.25878906 C-80.713523 199.93787961 -80.17738513 190.79244882 -71.2722168 180.25878906 C-70.3440918 179.13150391 -70.3440918 179.13150391 -69.3972168 177.98144531 C-65.90204406 173.83820929 -65.90204406 173.83820929 -64.2722168 172.25878906 C-63.6122168 172.25878906 -62.9522168 172.25878906 -62.2722168 172.25878906 C-62.2722168 171.59878906 -62.2722168 170.93878906 -62.2722168 170.25878906 C-60.08844914 169.12601638 -57.90064552 168.00256117 -55.7097168 166.88378906 C-55.10063477 166.56667969 -54.49155273 166.24957031 -53.86401367 165.92285156 C-46.55017725 162.20788703 -39.98318493 160.93112296 -31.8347168 161.00878906 C-31.02711914 161.00105469 -30.21952148 160.99332031 -29.38745117 160.98535156 C-24.03040463 161.00261843 -19.41879161 161.76976857 -14.2722168 163.25878906 C-14.2722168 163.91878906 -14.2722168 164.57878906 -14.2722168 165.25878906 C-12.9522168 165.25878906 -11.6322168 165.25878906 -10.2722168 165.25878906 C-10.26982844 164.42057428 -10.26744009 163.5823595 -10.26497936 162.71874428 C-10.20590956 142.34732347 -10.13041129 121.97602175 -10.03650188 101.60473061 C-9.99148695 91.75342501 -9.95208556 81.90215603 -9.92578125 72.05078125 C-9.90284717 63.46689785 -9.86950096 54.88312977 -9.82351524 46.29933774 C-9.7995208 41.75193579 -9.78083293 37.20464848 -9.77460289 32.6571846 C-9.76857999 28.38080231 -9.74868248 24.10471359 -9.71794128 19.82843971 C-9.70911594 18.25544455 -9.70544771 16.6824111 -9.70720863 15.10939217 C-9.70884928 12.96838691 -9.69226816 10.82828966 -9.67094421 8.68740845 C-9.66633525 7.48723398 -9.66172628 6.28705952 -9.65697765 5.05051613 C-9.53000657 4.1292462 -9.40303549 3.20797626 -9.2722168 2.25878906 C-5.72138167 -0.10843436 -4.21044858 0.00586814 0 0 Z " fill="#F3F3E7" transform="translate(268.272216796875,107.7412109375)"/>
<path d="M0 0 C0 11.22 0 22.44 0 34 C-4.310625 34.04125 -8.62125 34.0825 -13.0625 34.125 C-24.45861662 34.40205923 -35.38402229 35.56004768 -46.5625 37.75 C-47.81361572 37.98992676 -49.06473145 38.22985352 -50.35375977 38.47705078 C-57.68922505 39.99899669 -64.45606593 42.13413257 -71.37084961 45.02050781 C-74 46 -74 46 -77 46 C-77 46.66 -77 47.32 -77 48 C-78.134375 48.45890625 -79.26875 48.9178125 -80.4375 49.390625 C-81.95840074 50.01025123 -83.47923028 50.63005228 -85 51.25 C-85.74378906 51.55035156 -86.48757812 51.85070312 -87.25390625 52.16015625 C-95.23412592 55.42163733 -102.58852172 59.25659872 -109.8984375 63.828125 C-112 65 -112 65 -114 65 C-114.495 66.485 -114.495 66.485 -115 68 C-120.37142857 72 -120.37142857 72 -123 72 C-123 72.66 -123 73.32 -123 74 C-124.64453125 75.40234375 -124.64453125 75.40234375 -126.8125 76.9375 C-128.90594332 78.42845872 -130.79893006 79.78373585 -132.55078125 81.66796875 C-134 83 -134 83 -137.375 83.375 C-143.55857501 82.73531983 -146.66103951 79.57694408 -150.625 75 C-153.5553553 71.5873452 -153.5553553 71.5873452 -156.7421875 68.42578125 C-158.63180477 66.28382379 -158.46185315 63.9838155 -158.59375 61.23046875 C-156.99992785 55.24315003 -151.0970927 51.21324213 -146.375 47.625 C-145.76253418 47.15312256 -145.15006836 46.68124512 -144.51904297 46.19506836 C-142.68554373 44.78836886 -140.84389067 43.39303815 -139 42 C-137.98421875 41.22527344 -136.9684375 40.45054687 -135.921875 39.65234375 C-131.47717261 36.33123232 -127.17221606 33.50267002 -122.19042969 31.07788086 C-119.89544767 29.94855121 -117.63663801 28.76447652 -115.37890625 27.5625 C-114.19264648 26.93214844 -114.19264648 26.93214844 -112.98242188 26.2890625 C-111.37218264 25.43130794 -109.76280273 24.5719382 -108.15429688 23.7109375 C-98.76644102 18.73056157 -89.29086592 14.90220313 -79.16455078 11.68847656 C-77.69764408 11.22189897 -76.23251135 10.7497137 -74.76904297 10.27246094 C-49.36389045 2.0140367 -26.6340571 -0.57649474 0 0 Z " fill="#14271D" transform="translate(258,190)"/>
<path d="M0 0 C16.10472973 2.30067568 16.10472973 2.30067568 22.875 3.625 C23.57496094 3.7590625 24.27492188 3.893125 24.99609375 4.03125 C26.66462596 4.35124248 28.3324078 4.67514438 30 5 C30 5.66 30 6.32 30 7 C30.53625 7.08636719 31.0725 7.17273438 31.625 7.26171875 C49.85256671 10.52948976 65.77227925 18.1490432 81.95703125 26.8515625 C84.67444727 28.31198054 87.415078 29.70184192 90.1875 31.0546875 C100.20304135 36.02749884 108.70376859 43.6105345 117 51 C117.49580566 51.43860352 117.99161133 51.87720703 118.50244141 52.32910156 C120.13281036 53.77513356 121.75461507 55.23029485 123.375 56.6875 C123.89908447 57.15099854 124.42316895 57.61449707 124.96313477 58.09204102 C128.66660026 61.44779728 130.66910363 63.87280907 131.4375 68.8125 C130.65901023 74.48435407 127.06398092 78.23025189 122.875 81.9375 C120 84 120 84 117 84 C117 84.66 117 85.32 117 86 C116.34 86 115.68 86 115 86 C114.505 87.485 114.505 87.485 114 89 C107.34651105 88.69789564 104.37832045 87.37979299 99.8125 82.625 C96.41373697 79.22180573 93.14529582 76.47050537 89 74 C89 73.34 89 72.68 89 72 C88.01773438 71.66935547 88.01773438 71.66935547 87.015625 71.33203125 C82.95998944 69.5406171 79.4341661 67.13835053 75.75 64.6875 C66.75739551 58.79888366 58.10029472 53.77443164 48 50 C48 49.34 48 48.68 48 48 C47.27941406 48.04640625 46.55882812 48.0928125 45.81640625 48.140625 C42.62423309 47.98123771 40.7834441 47.17511831 37.9375 45.75 C27.84371748 40.97863809 17.43418988 38.27131865 6.58984375 35.83203125 C3 35 3 35 0 34 C0 22.78 0 11.56 0 0 Z " fill="#14271D" transform="translate(280,192)"/>
<path d="M0 0 C13.82317644 3.41057811 25.88445086 9.0604148 37 18 C37.56541504 18.4326416 38.13083008 18.8652832 38.71337891 19.31103516 C40.6629707 20.8076763 42.58213786 22.33797288 44.5 23.875 C45.13639404 24.35654541 45.77278809 24.83809082 46.4284668 25.33422852 C50.76457532 28.89571517 50.76457532 28.89571517 51.44189453 32.07275391 C51.54623052 38.53129854 49.20231758 41.83913388 44.9375 46.3125 C42 49 42 49 40 49 C39.62875 49.8971875 39.62875 49.8971875 39.25 50.8125 C37.7457326 53.44496795 36.67492092 54.5540968 34 56 C30.68639472 56.45130084 28.14446945 56.65629483 25.17016602 54.95068359 C23.25076538 53.47319087 21.43496131 51.92208532 19.625 50.3125 C14.32291318 45.81838152 9.27419546 42.08206093 3 39 C3 38.34 3 37.68 3 37 C-12.60627738 32.82340964 -28.14161381 30.77315388 -44 35 C-45.66492106 35.34194554 -47.33124266 35.67729605 -49 36 C-49 36.66 -49 37.32 -49 38 C-49.54785156 38.17273438 -50.09570312 38.34546875 -50.66015625 38.5234375 C-59.35144678 41.60425268 -66.49127623 46.77574855 -74 52 C-77.61248141 54.40832094 -78.73874968 54.72360855 -83 54 C-89.57274461 49.7678601 -96.95849916 42.2898002 -99.79296875 34.9453125 C-100.45281355 31.32781043 -99.85234554 29.07130842 -98 26 C-95.52466216 23.45185811 -92.73498462 21.26406012 -90 19 C-89.13890625 18.25234375 -88.2778125 17.5046875 -87.390625 16.734375 C-86.51921875 15.99703125 -85.6478125 15.2596875 -84.75 14.5 C-83.94046875 13.8090625 -83.1309375 13.118125 -82.296875 12.40625 C-80 11 -80 11 -77.88671875 11.11328125 C-76 12 -76 12 -73.0625 14.6875 C-63.82578786 23.00054092 -52.41303362 25.59444353 -40.375 25.3359375 C-28.87240432 24.72009056 -18.42392671 19.76466288 -10 12 C-8.13135904 9.74400978 -6.59257616 7.46592438 -5 5 C-4.34 5 -3.68 5 -3 5 C-2.5359375 4.0409375 -2.5359375 4.0409375 -2.0625 3.0625 C-1 1 -1 1 0 0 Z " fill="#15281E" transform="translate(275,325)"/>
<path d="M0 0 C1.05630639 -0.00226556 2.11261278 -0.00453111 3.20092845 -0.00686532 C6.71646282 -0.01316109 10.2319582 -0.01237882 13.74749756 -0.0115509 C16.27794952 -0.01454515 18.80840102 -0.01794829 21.33885193 -0.02172852 C27.48505102 -0.02963089 33.63123599 -0.03278199 39.77743968 -0.03334089 C44.77755913 -0.03381747 49.77767543 -0.03587926 54.77779388 -0.03904152 C68.98021457 -0.04783975 83.18262773 -0.05246218 97.38505116 -0.05171105 C98.5315007 -0.05165111 98.5315007 -0.05165111 99.70111084 -0.05158997 C100.84897364 -0.05152864 100.84897364 -0.05152864 102.02002558 -0.05146609 C114.41597599 -0.05105981 126.81189599 -0.06062683 139.20783761 -0.07472833 C151.96154391 -0.08912139 164.71523541 -0.09599691 177.46895003 -0.09513456 C184.6188827 -0.09480361 191.76878349 -0.09750581 198.9187088 -0.10831261 C205.64598733 -0.11841614 212.37318763 -0.11805244 219.1004734 -0.11079597 C221.56181499 -0.10975383 224.02316083 -0.1120909 226.48449516 -0.11815643 C250.30324254 -0.17302685 250.30324254 -0.17302685 262.059021 2.13371277 C262.78779575 2.26799588 263.51657051 2.402279 264.26742935 2.54063129 C285.14360589 6.71157603 303.05185446 19.7788634 315.1449585 37.12590027 C324.23244768 51.21319764 328.43401745 65.25196009 328.26156616 81.94747925 C328.25919146 82.97776601 328.25681676 84.00805277 328.25437009 85.06956035 C328.24402901 88.49039201 328.21916779 91.91095653 328.1942749 95.33171082 C328.18383927 97.79635264 328.17430582 100.26099842 328.16560364 102.72564697 C328.14490741 108.01572387 328.11798433 113.30571191 328.08528519 118.59572411 C328.03801979 126.24400947 328.00215755 133.89231559 327.96900193 141.54067359 C327.91489181 153.95218533 327.85166908 166.36363303 327.78265381 178.77507019 C327.71566559 190.82550527 327.65300753 202.87595015 327.59613037 214.92643738 C327.59261793 215.67029631 327.58910549 216.41415525 327.58548661 217.18055537 C327.56789078 220.91259587 327.55037964 224.64463677 327.53291059 228.37667787 C327.38807419 259.29576207 327.22826995 290.2147521 327.059021 321.13371277 C326.729021 321.13371277 326.399021 321.13371277 326.059021 321.13371277 C325.92728202 296.4342474 325.79684249 271.73477546 325.66786957 247.03529549 C325.60793022 235.56191312 325.54759609 224.08853311 325.48626709 212.61515808 C325.43269316 202.59239494 325.37992657 192.5696279 325.32805395 182.54685581 C325.30066797 177.2604274 325.2729293 171.97400149 325.24421692 166.68758011 C325.21711891 161.69671853 325.19117913 156.70585201 325.16591167 151.71498084 C325.15591273 149.78537829 325.14548195 147.85577792 325.13460255 145.92618012 C325.07527009 135.37424056 325.05504349 124.82430151 325.11590576 114.27232361 C325.12473019 112.341034 325.13340213 110.40974369 325.14191437 108.47845268 C325.15790416 104.86976962 325.186849 101.26152534 325.22362518 97.65300179 C325.27384599 90.04701039 325.22746701 82.82594676 323.49260712 75.36853218 C323.01599381 72.91193911 322.98891424 70.63008001 323.059021 68.13371277 C322.399021 68.13371277 321.739021 68.13371277 321.059021 68.13371277 C321.08222412 67.53043152 321.10542725 66.92715027 321.1293335 66.30558777 C321.14738037 65.50636902 321.16542725 64.70715027 321.184021 63.88371277 C321.21882568 62.70035339 321.21882568 62.70035339 321.2543335 61.49308777 C321.03669736 58.86404326 320.52192912 57.32323088 319.059021 55.13371277 C318.069021 54.80371277 317.079021 54.47371277 316.059021 54.13371277 C316.182771 52.99933777 316.306521 51.86496277 316.434021 50.69621277 C316.44597652 43.95329994 312.00758177 39.17970158 307.559021 34.50871277 C306.321521 33.33308777 306.321521 33.33308777 305.059021 32.13371277 C303.54410225 30.33548454 302.05569644 28.52014109 300.58636475 26.68449402 C299.14376556 25.0439153 299.14376556 25.0439153 297.18792725 24.23918152 C295.059021 23.13371277 295.059021 23.13371277 292.7543335 20.77043152 C289.70206624 17.7845179 286.68551763 15.91962382 282.934021 13.94621277 C282.28038574 13.59816589 281.62675049 13.25011902 280.95330811 12.89152527 C275.48894188 10.10563913 270.19448322 8.64393832 264.059021 8.13371277 C264.059021 7.47371277 264.059021 6.81371277 264.059021 6.13371277 C263.22757568 6.13371277 262.39613037 6.13371277 261.53948975 6.13371277 C249.059021 6.13371277 249.059021 6.13371277 247.059021 5.13371277 C245.71488256 5.04213429 244.36630025 5.01177365 243.01904678 5.01345825 C241.74370115 5.01139673 241.74370115 5.01139673 240.44259095 5.00929356 C239.03338148 5.014686 239.03338148 5.014686 237.59570312 5.02018738 C236.60184089 5.02003852 235.60797866 5.01988966 234.5839994 5.01973629 C231.23222767 5.02043433 227.88050983 5.02829273 224.52874756 5.03605652 C222.13427766 5.03797442 219.73980736 5.03943882 217.34533691 5.04048157 C212.17793391 5.0436499 207.01054349 5.04981808 201.84314728 5.05854797 C194.36537325 5.07108798 186.88760452 5.07717562 179.40982172 5.08148134 C167.26977198 5.08855413 155.12972888 5.09935945 142.98968506 5.11320496 C142.26267992 5.11403277 141.53567478 5.11486058 140.78663918 5.11571348 C134.889743 5.12245611 128.99284704 5.12937899 123.09595108 5.1363163 C117.94724792 5.1423671 112.79854468 5.14834816 107.64984131 5.15422058 C106.92493225 5.15504871 106.2000232 5.15587683 105.4531472 5.15673006 C93.36418419 5.1704184 81.27522107 5.18017675 69.18625236 5.18713093 C62.39751944 5.19120988 55.60880088 5.19747047 48.82007599 5.20887756 C42.43439364 5.21954712 36.04872304 5.22575628 29.66303253 5.22852707 C27.31766556 5.2304014 24.97229925 5.23400694 22.62693787 5.23945999 C19.42803371 5.24666388 16.22918432 5.2477143 13.03027344 5.24723816 C12.09972334 5.25083312 11.16917325 5.25442808 10.21042466 5.25813198 C5.69991991 5.25092937 1.50458412 4.99662148 -2.940979 4.13371277 C-6.37775058 4.164772 -9.77258695 4.53891818 -13.190979 4.88371277 C-14.10105713 4.95847839 -15.01113525 5.03324402 -15.9487915 5.11027527 C-17.25203369 5.23789246 -17.25203369 5.23789246 -18.581604 5.36808777 C-19.76544678 5.47975281 -19.76544678 5.47975281 -20.97320557 5.59367371 C-23.33182964 6.00978017 -23.33182964 6.00978017 -24.940979 9.13371277 C-25.930979 8.80371277 -26.920979 8.47371277 -27.940979 8.13371277 C-36.10126644 9.24134181 -43.06369795 11.66417196 -49.940979 16.13371277 C-50.55070557 16.49851746 -51.16043213 16.86332214 -51.78863525 17.23918152 C-54.72959237 19.05381464 -55.81585937 19.75835385 -56.940979 23.13371277 C-57.52621338 23.27035339 -58.11144775 23.40699402 -58.7144165 23.54777527 C-61.87376963 24.37918399 -63.31332256 26.18071664 -65.565979 28.50871277 C-66.34199463 29.30019714 -67.11801025 30.09168152 -67.9175415 30.90715027 C-70.06697904 33.16120952 -70.06697904 33.16120952 -71.940979 36.13371277 C-72.600979 36.13371277 -73.260979 36.13371277 -73.940979 36.13371277 C-73.940979 37.45371277 -73.940979 38.77371277 -73.940979 40.13371277 C-74.600979 40.13371277 -75.260979 40.13371277 -75.940979 40.13371277 C-77.13196505 42.27748766 -77.92117999 44.01161883 -78.315979 46.44621277 C-79.16001277 50.07555795 -81.04265158 52.97450367 -82.940979 56.13371277 C-85.46137003 60.30989457 -85.46137003 60.30989457 -85.628479 65.00871277 C-85.401604 65.70996277 -85.174729 66.41121277 -84.940979 67.13371277 C-85.600979 67.13371277 -86.260979 67.13371277 -86.940979 67.13371277 C-86.610979 68.78371277 -86.280979 70.43371277 -85.940979 72.13371277 C-86.600979 72.13371277 -87.260979 72.13371277 -87.940979 72.13371277 C-87.734729 72.87621277 -87.528479 73.61871277 -87.315979 74.38371277 C-86.940979 77.13371277 -86.940979 77.13371277 -87.90198594 79.03262162 C-89.07238693 81.39945086 -89.1906261 82.87738929 -89.18986797 85.50117111 C-89.19446677 86.37360041 -89.19906556 87.24602972 -89.20380372 88.14489627 C-89.19866015 89.09895901 -89.19351659 90.05302175 -89.18821716 91.03599548 C-89.19063158 92.05309577 -89.19304599 93.07019606 -89.19553357 94.11811757 C-89.20118332 97.53711765 -89.19249737 100.95593193 -89.18389893 104.37492371 C-89.18497157 106.8224289 -89.18690999 109.26993385 -89.18965149 111.71743774 C-89.19400375 117.68467922 -89.18904709 123.65184767 -89.17980119 129.61907819 C-89.16940711 136.57865806 -89.16948773 143.53822601 -89.16997377 150.49781218 C-89.17047466 162.93033106 -89.16130976 175.36282426 -89.14678955 187.79533386 C-89.13273817 199.83277353 -89.12561723 211.87019057 -89.12628174 223.90763855 C-89.12632169 224.6472771 -89.12636165 225.38691564 -89.12640282 226.14896747 C-89.12646335 227.2565806 -89.12646335 227.2565806 -89.1265251 228.38656974 C-89.12721767 242.1129668 -89.12130456 255.83935431 -89.11237189 269.56574826 C-89.10937079 274.40387125 -89.1082941 279.24199246 -89.10783958 284.08011627 C-89.10708023 290.61688689 -89.10067266 297.15363708 -89.09067345 303.69040108 C-89.08777226 306.07994251 -89.0865182 308.46948665 -89.08710098 310.85902977 C-89.10056586 326.05722716 -89.10056586 326.05722716 -88.61940002 341.24583435 C-88.56270299 342.4258968 -88.50600595 343.60595924 -88.44759083 344.82178116 C-87.84993592 348.72889919 -86.59803889 351.55258431 -84.940979 355.13371277 C-84.14019775 358.15324402 -84.14019775 358.15324402 -83.628479 360.94621277 C-83.44672119 361.88078308 -83.26496338 362.81535339 -83.07769775 363.77824402 C-83.03258057 364.55554871 -82.98746338 365.33285339 -82.940979 366.13371277 C-83.600979 366.79371277 -84.260979 367.45371277 -84.940979 368.13371277 C-87.83350446 362.19420662 -89.77846263 356.62484077 -90.940979 350.13371277 C-91.11036578 349.25539103 -91.27975256 348.37706928 -91.45427227 347.47213173 C-93.48759807 335.48324303 -93.22967784 323.48602513 -93.21563721 311.36174011 C-93.2199907 308.86998849 -93.22517596 306.3782382 -93.23112488 303.88648987 C-93.24307827 297.84843142 -93.24567425 291.81043836 -93.24332462 285.77237408 C-93.24153289 280.8567804 -93.24330928 275.94120014 -93.24754906 271.02560806 C-93.24814425 270.3227869 -93.24873944 269.61996574 -93.24935266 268.89584697 C-93.25056457 267.46747107 -93.25177871 266.03909517 -93.25299504 264.61071928 C-93.26384431 251.24750147 -93.2617209 237.88430896 -93.25561019 224.52108975 C-93.25044716 212.33959022 -93.26168491 200.15817081 -93.28070841 187.97668712 C-93.30015902 175.42396204 -93.30832997 162.87127472 -93.30458516 150.31853449 C-93.30268353 143.28918166 -93.30505797 136.2598969 -93.3192997 129.23055649 C-93.33257265 122.61317274 -93.32985617 115.99592143 -93.31688881 109.37852859 C-93.31454117 106.9648559 -93.31719175 104.55117171 -93.32551193 102.13751221 C-93.4178357 73.24664029 -90.35041327 48.72629425 -70.940979 26.13371277 C-70.280979 26.13371277 -69.620979 26.13371277 -68.940979 26.13371277 C-68.940979 25.47371277 -68.940979 24.81371277 -68.940979 24.13371277 C-66.11315268 21.58802785 -62.99234594 19.40369239 -59.940979 17.13371277 C-59.40343994 16.69672058 -58.86590088 16.25972839 -58.31207275 15.80949402 C-41.90578218 2.9157774 -20.19098572 -0.03226553 0 0 Z " fill="#47BD67" transform="translate(137.94097900390625,46.86628723144531)"/>
<path d="M0 0 C5.59325717 0.69915715 9.55227432 1.31351671 14.6875 3.06640625 C15.87988281 3.46923828 17.07226562 3.87207031 18.30078125 4.28710938 C19.52152344 4.70798828 20.74226563 5.12886719 22 5.5625 C23.26408497 5.99223702 24.52840635 6.42127931 25.79296875 6.84960938 C28.86436798 7.89294728 31.93319848 8.9432398 35 10 C35 10.66 35 11.32 35 12 C36.485 12.37125 36.485 12.37125 38 12.75 C51.37192866 16.65789963 63.45011738 26.1972317 74 35 C74.97453125 35.77859375 75.9490625 36.5571875 76.953125 37.359375 C77.93796875 38.14828125 78.9228125 38.9371875 79.9375 39.75 C80.83339844 40.46671875 81.72929687 41.1834375 82.65234375 41.921875 C86.2562372 45.1120103 87.82405451 46.94432704 88.625 51.75 C88.38659567 57.34731896 84.85481666 60.30846287 81 64 C79.93458984 65.12921875 79.93458984 65.12921875 78.84765625 66.28125 C75.04638143 70.07584419 72.47618258 72.5 66.9375 72.5 C65.638125 72.335 64.33875 72.17 63 72 C62.7525 71.38125 62.505 70.7625 62.25 70.125 C60.74610535 67.56837909 59.64255621 67.23734937 57 66 C55.48965339 64.659324 54.01359103 63.27959739 52.5625 61.875 C38.05567457 48.63884541 18.68241101 40.33783172 0 35 C0 23.45 0 11.9 0 0 Z " fill="#14261D" transform="translate(280,259)"/>
<path d="M0 0 C0 5.61 0 11.22 0 17 C-1.32 17 -2.64 17 -4 17 C-4 16.34 -4 15.68 -4 15 C-20.71833544 12.65256249 -35.2469492 13.01988212 -50 22 C-50.66 22 -51.32 22 -52 22 C-52 22.66 -52 23.32 -52 24 C-53.10820683 25.14283829 -54.22370619 26.27917542 -55.3671875 27.38671875 C-64.16428599 35.84007433 -64.16428599 35.84007433 -68.22265625 47.0234375 C-69.42783926 50.08787269 -71.55085389 50.52038674 -74.5 51.8125 C-82.45121875 55.5609317 -88.67463606 59.96291193 -94 67 C-96.74536394 69.74536394 -98.47103625 70.86775906 -102.25 71.8125 C-108.17804059 70.52809121 -111.14942396 66.48394181 -115 62 C-115.83337891 61.08927734 -115.83337891 61.08927734 -116.68359375 60.16015625 C-119.77299055 56.44062752 -120.92266051 53.11355899 -120.59375 48.25390625 C-118.28754113 39.49941599 -107.91363089 33.86007716 -101 29 C-100.0615625 28.3296875 -99.123125 27.659375 -98.15625 26.96875 C-82.48287654 16.11795299 -66.22915326 9.39664251 -48 4 C-47.2260791 3.75846191 -46.4521582 3.51692383 -45.65478516 3.26806641 C-30.78104418 -1.29303276 -15.3805877 -0.36475702 0 0 Z " fill="#15281E" transform="translate(258,256)"/>
<path d="M0 0 C1.44036828 -0.00752361 2.88073691 -0.01498027 4.32110596 -0.02235413 C6.12926914 -0.03525105 6.12926914 -0.03525105 7.97396088 -0.04840851 C12.40456013 0.06764358 16.44634485 0.79750974 20.68890381 2.03416443 C21.87540527 2.36746765 21.87540527 2.36746765 23.08587646 2.70750427 C44.27756786 9.03815439 61.09826709 23.74975126 72.30218506 42.63572693 C78.87000879 54.87128721 81.47143637 67.05330455 81.32894897 80.84793091 C81.32657427 81.87821767 81.32419957 82.90850443 81.32175291 83.97001201 C81.31141182 87.39084367 81.2865506 90.81140819 81.26165771 94.23216248 C81.25122208 96.6968043 81.24168863 99.16145008 81.23298645 101.62609863 C81.21229023 106.91617553 81.18536714 112.20616357 81.152668 117.49617577 C81.10540261 125.14446113 81.06954037 132.79276725 81.03638475 140.44112525 C80.98227462 152.85263699 80.91905189 165.26408469 80.85003662 177.67552185 C80.7830484 189.72595693 80.72039034 201.77640181 80.66351318 213.82688904 C80.66000074 214.57074797 80.6564883 215.31460691 80.65286942 216.08100703 C80.63527359 219.81304753 80.61776245 223.54508843 80.6002934 227.27712953 C80.455457 258.19621373 80.29565276 289.11520376 80.12640381 320.03416443 C79.79640381 320.03416443 79.46640381 320.03416443 79.12640381 320.03416443 C78.99466483 295.33469906 78.8642253 270.63522712 78.73525238 245.93574715 C78.67531303 234.46236478 78.61497891 222.98898477 78.5536499 211.51560974 C78.50007598 201.4928466 78.44730938 191.47007956 78.39543676 181.44730747 C78.36805078 176.16087906 78.34031212 170.87445315 78.31159973 165.58803177 C78.28450172 160.59717019 78.25856195 155.60630367 78.23329449 150.6154325 C78.22329554 148.68582995 78.21286476 146.75622958 78.20198536 144.82663178 C78.1426529 134.27469222 78.1224263 123.72475317 78.18328857 113.17277527 C78.192113 111.24148566 78.20078494 109.31019535 78.20929718 107.37890434 C78.22528698 103.77022128 78.25423181 100.16197701 78.291008 96.55345345 C78.3412288 88.94746206 78.29484982 81.72639842 76.55998993 74.26898384 C76.08337663 71.81239077 76.05629705 69.53053167 76.12640381 67.03416443 C75.46640381 67.03416443 74.80640381 67.03416443 74.12640381 67.03416443 C74.14960693 66.43088318 74.17281006 65.82760193 74.19671631 65.20603943 C74.21476318 64.40682068 74.23281006 63.60760193 74.25140381 62.78416443 C74.2862085 61.60080505 74.2862085 61.60080505 74.32171631 60.39353943 C74.10408017 57.76449492 73.58931193 56.22368254 72.12640381 54.03416443 C71.13640381 53.70416443 70.14640381 53.37416443 69.12640381 53.03416443 C69.25015381 51.89978943 69.37390381 50.76541443 69.50140381 49.59666443 C69.51335933 42.8537516 65.07496458 38.08015324 60.62640381 33.40916443 C59.38890381 32.23353943 59.38890381 32.23353943 58.12640381 31.03416443 C56.61148506 29.2359362 55.12307925 27.42059275 53.65374756 25.58494568 C52.21114837 23.94436696 52.21114837 23.94436696 50.25531006 23.13963318 C48.12640381 22.03416443 48.12640381 22.03416443 45.82171631 19.67088318 C42.76944905 16.68496956 39.75290044 14.82007548 36.00140381 12.84666443 C35.34776855 12.49861755 34.6941333 12.15057068 34.02069092 11.79197693 C28.5563247 9.00609079 23.26186604 7.54438998 17.12640381 7.03416443 C17.12640381 6.37416443 17.12640381 5.71416443 17.12640381 5.03416443 C16.2949585 5.03416443 15.46351318 5.03416443 14.60687256 5.03416443 C2.12640381 5.03416443 2.12640381 5.03416443 0.12640381 4.03416443 C-1.21776512 3.94344027 -2.56634592 3.91402803 -3.9135704 3.91670322 C-4.76380083 3.91594557 -5.61403125 3.91518792 -6.49002624 3.91440731 C-7.42949922 3.91868439 -8.3689722 3.92296147 -9.33691406 3.92736816 C-10.82770741 3.92820322 -10.82770741 3.92820322 -12.34861779 3.92905515 C-15.70039263 3.93210678 -19.05210908 3.94230013 -22.40386963 3.95237732 C-24.79833921 3.95593122 -27.19280952 3.95901782 -29.58728027 3.96166992 C-34.75468468 3.96823481 -39.92207529 3.97772198 -45.08946991 3.9895649 C-52.56724142 4.00652253 -60.04500899 4.01608912 -67.52279547 4.02344363 C-79.66284568 4.03539863 -91.80288974 4.05035026 -103.94293213 4.06858826 C-104.66993727 4.06967838 -105.39694241 4.0707685 -106.145978 4.07189166 C-116.45845863 4.08749509 -126.77093173 4.10608643 -137.08340505 4.12588953 C-137.80919742 4.12728285 -138.5349898 4.12867616 -139.28277588 4.13011169 C-140.00768493 4.13150522 -140.73259399 4.13289875 -141.47946998 4.13433451 C-153.56843037 4.15737313 -165.65738589 4.17268683 -177.74636483 4.18167108 C-184.53511411 4.18699901 -191.32381471 4.19626362 -198.1125412 4.21505928 C-204.49823287 4.23250715 -210.8838699 4.24082119 -217.26958466 4.24208641 C-219.61495543 4.24423623 -221.96032593 4.24983592 -224.30567932 4.25911713 C-227.50463814 4.27128729 -230.7033688 4.27115349 -233.90234375 4.26794434 C-234.83289385 4.27445214 -235.76344394 4.28095994 -236.72219253 4.28766495 C-241.51262731 4.26893317 -245.37333711 3.89991283 -249.87359619 2.03416443 C-249.87359619 1.70416443 -249.87359619 1.37416443 -249.87359619 1.03416443 C-218.9343941 0.90638948 -187.99519064 0.77895259 -157.05598524 0.65198216 C-153.39639331 0.63696338 -149.73680139 0.62194174 -146.07720947 0.60691833 C-144.98445399 0.60243241 -144.98445399 0.60243241 -143.86962265 0.59785587 C-132.101653 0.54953982 -120.33368431 0.50099274 -108.56571597 0.45235902 C-96.47450702 0.40239463 -84.38329705 0.35268144 -72.29208612 0.30319738 C-65.50748276 0.27542386 -58.7228799 0.24753753 -51.9382782 0.21936035 C-45.54274419 0.19281044 -39.14720898 0.16657239 -32.75167274 0.14056587 C-30.4137346 0.13100541 -28.0757969 0.12133437 -25.73785973 0.11153984 C-19.65760266 0.08609981 -13.57735048 0.06377392 -7.49707031 0.04469872 C-4.9979894 0.03466392 -2.49903282 0.01821372 0 0 Z " fill="#44B963" transform="translate(384.87359619140625,47.96583557128906)"/>
<path d="M0 0 C31.1769645 -0.04571491 62.35392006 -0.08106552 93.53091016 -0.10213066 C97.21925592 -0.1046318 100.90760161 -0.10722047 104.59594727 -0.10986328 C105.33016984 -0.1103879 106.06439241 -0.11091252 106.82086415 -0.11145304 C118.67869923 -0.12013406 130.53651474 -0.13589122 142.39433824 -0.15430559 C154.57934283 -0.17306895 166.76433723 -0.18413027 178.94935566 -0.18817699 C186.45625923 -0.19090876 193.96310745 -0.19950794 201.46999396 -0.21583293 C207.2453419 -0.22774566 213.02065511 -0.22889522 218.79601288 -0.22621536 C221.15127209 -0.22676189 223.50653355 -0.23069036 225.86178017 -0.23841095 C241.55610631 -0.2872985 257.25858534 -0.2410893 272.5 4 C273.7271875 4.33 274.954375 4.66 276.21875 5 C279 6 279 6 280 8 C275.71 7.34 271.42 6.68 267 6 C267 5.34 267 4.68 267 4 C266.16855469 4 265.33710938 4 264.48046875 4 C252 4 252 4 250 3 C248.65583107 2.90927584 247.30725027 2.87986361 245.96002579 2.8825388 C245.10979536 2.88178114 244.25956494 2.88102349 243.38356996 2.88024288 C242.44409697 2.88451997 241.50462399 2.88879705 240.53668213 2.89320374 C239.04588878 2.8940388 239.04588878 2.8940388 237.5249784 2.89489073 C234.17320356 2.89794235 230.82148711 2.9081357 227.46972656 2.91821289 C225.07525698 2.9217668 222.68078667 2.92485339 220.28631592 2.92750549 C215.11891151 2.93407039 209.9515209 2.94355755 204.78412628 2.95540047 C197.30635477 2.9723581 189.8285872 2.98192469 182.35080072 2.9892792 C170.21075051 3.0012342 158.07070645 3.01618584 145.93066406 3.03442383 C145.20365892 3.03551395 144.47665379 3.03660407 143.72761819 3.03772723 C133.41513756 3.05333066 123.10266446 3.071922 112.79019114 3.0917251 C112.06439877 3.09311842 111.3386064 3.09451173 110.59082031 3.09594727 C109.86591126 3.0973408 109.1410022 3.09873433 108.39412621 3.10017008 C96.30516582 3.1232087 84.2162103 3.1385224 72.12723136 3.14750665 C65.33848208 3.15283458 58.54978149 3.16209919 51.76105499 3.18089485 C45.37536332 3.19834272 38.98972629 3.20665676 32.60401154 3.20792198 C30.25864076 3.2100718 27.91327026 3.21567149 25.56791687 3.2249527 C22.36895806 3.23712286 19.17022739 3.23698906 15.97125244 3.23377991 C15.04070235 3.24028771 14.11015225 3.24679551 13.15140367 3.25350052 C8.36096888 3.23476874 4.50025908 2.8657484 0 1 C0 0.67 0 0.34 0 0 Z " fill="#59D179" transform="translate(135,49)"/>
<path d="M0 0 C1.31815201 -0.00472824 1.31815201 -0.00472824 2.66293335 -0.009552 C4.08782578 -0.00651566 4.08782578 -0.00651566 5.54150391 -0.00341797 C7.02041611 -0.00485306 7.02041611 -0.00485306 8.52920532 -0.00631714 C10.62233544 -0.00699837 12.71546767 -0.00514805 14.80859375 -0.00097656 C17.97091606 0.00431562 21.13309261 -0.00089373 24.29541016 -0.00732422 C33.63447532 -0.00968103 42.89315576 -0.00018654 52.19042969 0.9699707 C54.625008 1.12822072 56.73886174 0.94617334 59.14306641 0.56689453 C62.77467365 0.11294363 64.4555277 0.43601459 67.64306641 2.12939453 C67.64306641 2.78939453 67.64306641 3.44939453 67.64306641 4.12939453 C68.24119141 4.41814453 68.83931641 4.70689453 69.45556641 5.00439453 C71.64306641 6.12939453 71.64306641 6.12939453 74.64306641 8.12939453 C71.0414881 7.67919724 67.81682256 7.18329361 64.33984375 6.10473633 C57.85007686 4.46338938 51.1418037 4.86304245 44.49462891 4.89892578 C43.03111817 4.9001197 41.56760666 4.9005703 40.10409546 4.90031433 C37.0530714 4.90187071 34.00216609 4.91009982 30.95117188 4.92358398 C27.03702458 4.94066338 23.12300627 4.94439528 19.20882607 4.9436388 C16.19431321 4.94391022 13.17982863 4.94938537 10.16532516 4.95664024 C8.72119739 4.95982398 7.27706642 4.96179363 5.83293533 4.96253395 C3.8225311 4.96469548 1.81213883 4.9742297 -0.19824219 4.98413086 C-1.34215424 4.98794266 -2.48606628 4.99175446 -3.66464233 4.99568176 C-6.32731505 4.94696194 -6.32731505 4.94696194 -8.35693359 6.12939453 C-8.68693359 59.25939453 -9.01693359 112.38939453 -9.35693359 167.12939453 C-9.68693359 167.12939453 -10.01693359 167.12939453 -10.35693359 167.12939453 C-11.45317499 62.90538926 -11.45317499 62.90538926 -11.53417969 31.23681641 C-11.54098978 28.92397818 -11.55121748 26.61114738 -11.56494141 24.29833984 C-11.58231308 21.19246813 -11.58709092 18.0868703 -11.58740234 14.98095703 C-11.59454758 14.10484772 -11.60169281 13.2287384 -11.60905457 12.32608032 C-11.59391042 8.4059305 -11.58198473 6.46697124 -9.35693359 3.12939453 C-8.69693359 3.12939453 -8.03693359 3.12939453 -7.35693359 3.12939453 C-7.35693359 2.46939453 -7.35693359 1.80939453 -7.35693359 1.12939453 C-4.56465385 0.19863462 -2.88422239 0.00297502 0 0 Z " fill="#5EB675" transform="translate(268.35693359375,103.87060546875)"/>
<path d="M0 0 C1.89788611 2.84682916 2.43477625 4.25060648 3.0625 7.5 C3.21847656 8.2734375 3.37445313 9.046875 3.53515625 9.84375 C4.7364366 18.00034263 5.1470892 26.12214474 5.12025452 34.35820007 C5.12110894 35.33948421 5.12196337 36.32076834 5.12284368 37.33178836 C5.12447753 40.58668993 5.11901175 43.8415388 5.11352539 47.09643555 C5.11324304 49.44285582 5.11340219 51.78927619 5.1139679 54.13569641 C5.114254 60.48195785 5.10838747 66.82820028 5.10139394 73.17445731 C5.09576468 79.14194498 5.0947695 85.1094327 5.09374207 91.07692251 C5.09155846 102.88942001 5.08491719 114.70191056 5.07543945 126.5144043 C5.0662474 137.98282843 5.05917535 149.45125066 5.05493164 160.91967773 C5.05466892 161.62769272 5.05440619 162.33570771 5.05413551 163.0651777 C5.05283038 166.61740967 5.0515667 170.16964165 5.05032361 173.72187364 C5.03997254 203.14792023 5.02229829 232.57396004 5 262 C4.67 262 4.34 262 4 262 C3.86826102 237.30053464 3.73782149 212.60106269 3.60884857 187.90158272 C3.54890923 176.42820035 3.4885751 164.95482034 3.42724609 153.48144531 C3.37367217 143.45868217 3.32090557 133.43591513 3.26903296 123.41314304 C3.24164697 118.12671464 3.21390831 112.84028872 3.18519592 107.55386734 C3.15809791 102.56300576 3.13215814 97.57213924 3.10689068 92.58126807 C3.09689173 90.65166552 3.08646095 88.72206515 3.07558155 86.79246736 C3.01624909 76.24052779 2.9960225 65.69058875 3.05688477 55.13861084 C3.0657092 53.20732123 3.07438113 51.27603092 3.08289337 49.34473991 C3.09888317 45.73605685 3.127828 42.12781258 3.16460419 38.51928902 C3.21482499 30.91329763 3.16844602 23.69223399 1.43358612 16.23481941 C0.95697282 13.77822634 0.92989324 11.49636724 1 9 C0.34 9 -0.32 9 -1 9 C-0.67 6.03 -0.34 3.06 0 0 Z " fill="#51C670" transform="translate(460,106)"/>
<path d="M0 0 C1.94298225 -0.00945648 1.94298225 -0.00945648 3.92521667 -0.019104 C5.34247981 -0.01552233 6.75974171 -0.0114199 8.17700195 -0.00683594 C9.63328618 -0.00818381 11.08956997 -0.01012537 12.54585266 -0.01263428 C15.60157546 -0.01558445 18.65718141 -0.0112945 21.71289062 -0.00195312 C25.61208096 0.00939086 29.5109944 0.00291364 33.41017437 -0.00909805 C36.42065982 -0.01636289 39.43108087 -0.01400675 42.44156837 -0.00884247 C43.87794846 -0.00751609 45.31433456 -0.00911792 46.75070763 -0.01380157 C54.05971054 -0.03239014 60.73864398 0.01094805 67.7277832 2.25878906 C68.50508789 2.505 69.28239258 2.75121094 70.08325195 3.00488281 C73.88503766 4.43967187 77.31014051 6.01596105 80.7277832 8.25878906 C80.0677832 8.91878906 79.4077832 9.57878906 78.7277832 10.25878906 C77.4077832 9.59878906 76.0877832 8.93878906 74.7277832 8.25878906 C74.7277832 7.59878906 74.7277832 6.93878906 74.7277832 6.25878906 C73.5830957 6.32066406 73.5830957 6.32066406 72.4152832 6.38378906 C69.7277832 6.25878906 69.7277832 6.25878906 66.7277832 4.25878906 C59.23328313 2.84958118 51.61732205 3.09488197 44.0168457 3.09082031 C42.59817471 3.0876025 41.17950405 3.08423804 39.76083374 3.08073425 C36.80400827 3.07477803 33.8472119 3.0728911 30.89038086 3.07348633 C27.0972578 3.07358862 23.30431913 3.05985254 19.51124001 3.04271412 C16.58937718 3.03162288 13.66755968 3.0295661 10.74567795 3.03009605 C9.34619884 3.02891482 7.94671859 3.02448503 6.54726028 3.01676369 C4.59915822 3.00700761 2.65100151 3.01109468 0.70288086 3.01586914 C-0.4055014 3.01444412 -1.51388367 3.0130191 -2.65585327 3.0115509 C-5.43181554 2.99342271 -5.43181554 2.99342271 -7.2722168 5.25878906 C-7.56608609 8.21447017 -7.56608609 8.21447017 -7.49926758 11.72802734 C-7.49955963 12.39156219 -7.49985168 13.05509705 -7.50015259 13.73873901 C-7.49875736 15.93565878 -7.48318747 18.13224092 -7.4675293 20.32910156 C-7.46379984 21.85081802 -7.46095255 23.37253688 -7.45895386 24.89425659 C-7.45131203 28.90234998 -7.43165893 32.91029877 -7.4095459 36.91833496 C-7.38909924 41.00706018 -7.37995467 45.09580872 -7.36987305 49.18457031 C-7.34841347 57.20937631 -7.314271 65.2340647 -7.2722168 73.25878906 C-8.2622168 73.75378906 -8.2622168 73.75378906 -9.2722168 74.25878906 C-9.34163511 64.90573385 -9.39498627 55.55276691 -9.42765331 46.19951057 C-9.44332949 41.85671026 -9.46460304 37.5140858 -9.49853516 33.17138672 C-9.53105948 28.98278951 -9.5490551 24.79436175 -9.55684853 20.60564804 C-9.56240455 19.00519008 -9.57325375 17.40474171 -9.58940697 15.80435562 C-9.61108986 13.56776925 -9.61418766 11.33188889 -9.61279297 9.09521484 C-9.6194548 7.8205838 -9.62611664 6.54595276 -9.63298035 5.23269653 C-9.51392838 4.25130707 -9.3948764 3.2699176 -9.2722168 2.25878906 C-5.72138167 -0.10843436 -4.21044858 0.00586814 0 0 Z " fill="#CEEED0" transform="translate(268.272216796875,107.7412109375)"/>
<path d="M0 0 C0.33 0 0.66 0 1 0 C1 22.44 1 44.88 1 68 C3.31 68.33 5.62 68.66 8 69 C8 69.33 8 69.66 8 70 C6.02 70 4.04 70 2 70 C2.01160156 71.02480469 2.02320313 72.04960937 2.03515625 73.10546875 C2.04454022 74.466144 2.05363977 75.82682124 2.0625 77.1875 C2.07087891 77.86103516 2.07925781 78.53457031 2.08789062 79.22851562 C2.10606538 82.95434131 1.89299392 86.3788042 1 90 C0.34 90 -0.32 90 -1 90 C-1 92.31 -1 94.62 -1 97 C-2.485 97.495 -2.485 97.495 -4 98 C-3.69078116 96.54096742 -3.37751201 95.08279278 -3.0625 93.625 C-2.88847656 92.81289063 -2.71445312 92.00078125 -2.53515625 91.1640625 C-2 89 -2 89 -1 87 C-0.91472125 85.41260025 -0.89284179 83.82159398 -0.90234375 82.23193359 C-0.90560669 81.23321732 -0.90886963 80.23450104 -0.91223145 79.20552063 C-0.92057007 78.1141832 -0.92890869 77.02284576 -0.9375 75.8984375 C-0.94606169 73.56062861 -0.9545212 71.22281935 -0.96289062 68.88500977 C-0.96909424 67.65694611 -0.97529785 66.42888245 -0.98168945 65.16360474 C-1.08678148 43.41918781 -0.96589293 21.72488441 0 0 Z " fill="#74A780" transform="translate(279,226)"/>
<path d="M0 0 C0.33 0.66 0.66 1.32 1 2 C2.65 1.34 4.3 0.68 6 0 C-0.35972615 7.69861587 -0.35972615 7.69861587 -2.8671875 8.87890625 C-5.42788287 10.22491279 -7.10356487 11.87379151 -9.125 13.9375 C-9.80820313 14.62714844 -10.49140625 15.31679687 -11.1953125 16.02734375 C-13.15844574 18.07261012 -13.15844574 18.07261012 -15 21 C-15.66 21 -16.32 21 -17 21 C-17 22.32 -17 23.64 -17 25 C-17.66 25 -18.32 25 -19 25 C-20.19098605 27.14377489 -20.98020098 28.87790606 -21.375 31.3125 C-22.0702425 34.30204276 -23.37202965 36.60043986 -24.9453125 39.21875 C-26.43950701 41.74227851 -27.71486191 44.36546692 -29 47 C-30.31605506 44.0103489 -29.92071894 42.7484186 -28.91796875 39.56640625 C-28.35929418 38.2240728 -27.78122046 36.88970473 -27.1875 35.5625 C-26.87490234 34.85746338 -26.56230469 34.15242676 -26.24023438 33.42602539 C-21.09866486 22.38582258 -12.42069118 10.56117593 -2 4 C-1.34 4 -0.68 4 0 4 C0 2.68 0 1.36 0 0 Z " fill="#4BC16B" transform="translate(81,62)"/>
<path d="M0 0 C0.66 0 1.32 0 2 0 C4.74228175 4.11342262 4.38475002 8.0572393 4.47851562 12.84375 C4.6710246 17.83959274 5.87741357 21.40642281 8 26 C8.80078125 29.01953125 8.80078125 29.01953125 9.3125 31.8125 C9.49425781 32.74707031 9.67601562 33.68164062 9.86328125 34.64453125 C9.90839844 35.42183594 9.95351563 36.19914062 10 37 C9.34 37.66 8.68 38.32 8 39 C2.09856595 26.88200678 -0.23991652 13.46959913 0 0 Z " fill="#42B762" transform="translate(45,376)"/>
<path d="M0 0 C0 0.33 0 0.66 0 1 C-1.22332031 1.03738281 -2.44664062 1.07476562 -3.70703125 1.11328125 C-23.12448752 1.7727601 -23.12448752 1.7727601 -42 6 C-44.04296875 5.87890625 -44.04296875 5.87890625 -46.1875 5.5625 C-47.445625 5.376875 -48.70375 5.19125 -50 5 C-40.23075412 -4.76924588 -12.97837451 -0.23023863 0 0 Z " fill="#205B31" transform="translate(258,190)"/>
<path d="M0 0 C3.87504589 1.66073395 5.39644191 3.45972755 7.1875 7.125 C9.76689506 12.16057062 13.31404447 15.3334521 17.59765625 18.95703125 C19.8526499 20.87469252 21.93672903 22.87954831 24 25 C19 25 19 25 16.6875 22.8125 C15.800625 21.884375 14.91375 20.95625 14 20 C13.23042969 19.24332031 12.46085937 18.48664063 11.66796875 17.70703125 C8.85818365 14.85610727 6.2166736 11.92268655 3.625 8.875 C3.16222656 8.35035156 2.69945312 7.82570313 2.22265625 7.28515625 C0.9140625 5.7421875 0.9140625 5.7421875 -1 3 C-0.67 2.01 -0.34 1.02 0 0 Z " fill="#42B661" transform="translate(59,423)"/>
<path d="M0 0 C0.33 0.99 0.66 1.98 1 3 C2.88316159 4.10836423 2.88316159 4.10836423 5 5 C5.99 5.66 6.98 6.32 8 7 C4.34109739 6.54263717 0.9976495 5.99934021 -2.5625 5 C-8.56729155 3.40664937 -14.82367721 3.3296352 -21 3 C-21 2.01 -21 1.02 -21 0 C-20.39671875 0.01160156 -19.7934375 0.02320312 -19.171875 0.03515625 C-18.37265625 0.04417969 -17.5734375 0.05320312 -16.75 0.0625 C-15.96109375 0.07410156 -15.1721875 0.08570312 -14.359375 0.09765625 C-12.03112952 0.08511167 -12.03112952 0.08511167 -9.96875 -0.53125 C-6.57503462 -1.33927747 -3.42036865 -0.5130553 0 0 Z " fill="#4DBF6C" transform="translate(335,105)"/>
<path d="M0 0 C1.67056149 0.31323028 3.33605325 0.65334443 5 1 C6.27875 1.2475 7.5575 1.495 8.875 1.75 C13.45151967 2.91588144 16.4467507 4.89090686 20 8 C20 9.32 20 10.64 20 12 C20.556875 12.20625 21.11375 12.4125 21.6875 12.625 C24.87277155 14.51894524 26.70517652 17.11676025 29 20 C29.98290968 21.01680311 30.97334787 22.02738219 32 23 C29 23 29 23 27.31640625 21.3203125 C26.73761719 20.59585938 26.15882813 19.87140625 25.5625 19.125 C23.2087972 16.12532802 23.2087972 16.12532802 20.08984375 14.0546875 C18 13 18 13 15.67578125 10.61328125 C12.71836743 7.72494571 9.85357909 6.0760862 6.1875 4.1875 C5.02605469 3.58292969 3.86460937 2.97835937 2.66796875 2.35546875 C1.78753906 1.90816406 0.90710938 1.46085937 0 1 C0 0.67 0 0.34 0 0 Z " fill="#4BBF6A" transform="translate(415,57)"/>
<path d="M0 0 C0 3 0 3 -2.1171875 5.15625 C-3.02726562 5.9296875 -3.93734375 6.703125 -4.875 7.5 C-7.73797009 9.94698299 -9.90408388 11.85612581 -12 15 C-15.70800404 15.71652252 -19.27638789 15.5774297 -23 15 C-25.9375 12.8125 -25.9375 12.8125 -28 10 C-30.57359538 6.4782368 -30.57359538 6.4782368 -34 4 C-33.67 3.01 -33.34 2.02 -33 1 C-31.91666667 2.08333333 -30.83333333 3.16666667 -29.75 4.25 C-29.10289062 4.88550781 -28.45578125 5.52101563 -27.7890625 6.17578125 C-26 8 -26 8 -24.125 10.4375 C-21.26857423 12.53781307 -19.26442814 13.03215861 -15.7265625 12.9375 C-9.3453478 10.74338606 -4.58380242 4.76091998 0 0 Z " fill="#399C55" transform="translate(365,318)"/>
<path d="M0 0 C4.45626122 3.2835609 6.58257908 5.31657979 7.4375 10.8125 C6.8418328 15.15236102 4.95564499 17.82665878 2 21 C-0.3125 22.4375 -0.3125 22.4375 -2 23 C-2 21.68 -2 20.36 -2 19 C-1.01 19 -0.02 19 1 19 C1 16.03 1 13.06 1 10 C1.99 10 2.98 10 4 10 C3.2884375 8.9171875 3.2884375 8.9171875 2.5625 7.8125 C1.05847097 5.10524774 0.43400818 3.03805725 0 0 Z " fill="#143A20" transform="translate(404,250)"/>
<path d="M0 0 C2.875 0.1875 2.875 0.1875 6 1 C7.375 3.5625 7.375 3.5625 8 6 C11.28999282 6.41831404 11.28999282 6.41831404 15 6 C17.64587234 3.60414714 17.64587234 3.60414714 20 1 C22.8125 0.1875 22.8125 0.1875 25 0 C25 2 25 2 23.56640625 3.7265625 C19.81835635 7.27734661 17.32133218 9.47966587 12 9.4375 C10.66328616 9.32685983 9.32724563 9.19355665 8 9 C7.71125 8.36191406 7.4225 7.72382813 7.125 7.06640625 C5.74937305 4.53964702 4.54942972 4.19504518 2 3 C1.34 2.01 0.68 1.02 0 0 Z " fill="#11341D" transform="translate(335,322)"/>
<path d="M0 0 C0.33 0.66 0.66 1.32 1 2 C0.49210937 2.43570312 -0.01578125 2.87140625 -0.5390625 3.3203125 C-1.97440813 4.56212838 -3.40104898 5.81405416 -4.8203125 7.07421875 C-6.14796768 8.24721875 -7.49309694 9.40128601 -8.8671875 10.51953125 C-11.1446408 12.49731964 -12.84842518 14.11151357 -13.3671875 17.15234375 C-13.4152534 19.61390847 -13.4152534 19.61390847 -13 23 C-15.81870287 20.18129713 -15.7303841 17.90943055 -16 14 C-14.73546205 10.55615197 -12.78628226 8.70031644 -10 6.375 C-7.92339664 4.6266832 -5.92037235 2.92037235 -4 1 C-1.875 0.375 -1.875 0.375 0 0 Z " fill="#153E23" transform="translate(191,341)"/>
<path d="M0 0 C3.42407861 1.50440067 5.91374574 3.50591352 8.6875 6 C9.47511719 6.70125 10.26273437 7.4025 11.07421875 8.125 C13.90958812 10.88560304 13.98257742 11.78395998 14.3125 15.875 C14.29452307 19.17076982 14.16211381 19.79735774 12 22.5 C11.34 22.995 10.68 23.49 10 24 C10.09539062 23.32453125 10.19078125 22.6490625 10.2890625 21.953125 C10.45535156 20.61507813 10.45535156 20.61507813 10.625 19.25 C10.74101562 18.36828125 10.85703125 17.4865625 10.9765625 16.578125 C11.00325732 13.64169509 10.66446908 12.40258185 9 10 C6.71815252 8.0847309 4.3288615 6.40482463 1.8984375 4.68359375 C1.27195312 4.12800781 0.64546875 3.57242187 0 3 C0 2.01 0 1.02 0 0 Z " fill="#153F23" transform="translate(354,295)"/>
<path d="M0 0 C0.33 0.99 0.66 1.98 1 3 C-7.60642628 12.79235117 -7.60642628 12.79235117 -13.33203125 13.2890625 C-20.98857039 12.01142961 -20.98857039 12.01142961 -24 9 C-23.67 8.01 -23.34 7.02 -23 6 C-22.67 6.474375 -22.34 6.94875 -22 7.4375 C-18.90186733 9.85791615 -15.87973208 9.68198917 -12 10 C-11.67 9.34 -11.34 8.68 -11 8 C-10.34 8 -9.68 8 -9 8 C-9 7.34 -9 6.68 -9 6 C-7.36209288 4.95355934 -5.68991979 3.9601817 -4 3 C-2.65368175 2.01755155 -1.31558703 1.02323436 0 0 Z " fill="#379C54" transform="translate(406,270)"/>
<path d="M0 0 C0 0.66 0 1.32 0 2 C-0.59538574 2.04487549 -1.19077148 2.08975098 -1.80419922 2.13598633 C-4.49583026 2.34701735 -7.18518718 2.57948074 -9.875 2.8125 C-10.81214844 2.88275391 -11.74929687 2.95300781 -12.71484375 3.02539062 C-13.61074219 3.10595703 -14.50664063 3.18652344 -15.4296875 3.26953125 C-16.25710449 3.33760986 -17.08452148 3.40568848 -17.93701172 3.47583008 C-20.38563586 3.85280761 -20.38563586 3.85280761 -22 7 C-22.99 6.67 -23.98 6.34 -25 6 C-27.23786817 6.24245894 -29.46775934 6.56388029 -31.6875 6.9375 C-32.86699219 7.13214844 -34.04648438 7.32679687 -35.26171875 7.52734375 C-36.16535156 7.68332031 -37.06898437 7.83929688 -38 8 C-30.29671867 0.29671867 -10.42002895 -0.24374337 0 0 Z " fill="#52C772" transform="translate(135,49)"/>
<path d="M0 0 C0.66 0 1.32 0 2 0 C2 2.31 2 4.62 2 7 C-7.57 7 -17.14 7 -27 7 C-27 6.67 -27 6.34 -27 6 C-8.17995444 3.70387244 -8.17995444 3.70387244 1 4 C0.67 2.68 0.34 1.36 0 0 Z " fill="#12371E" transform="translate(256,217)"/>
<path d="M0 0 C6.50613832 1.50141654 12.36111716 3.97544603 18.3125 6.9375 C19.3344043 7.44120117 19.3344043 7.44120117 20.37695312 7.95507812 C24.29264423 9.94565069 27.65553698 12.10836563 31 15 C26.64477147 14.49357808 23.55760365 13.61588503 20 11 C20 10.34 20 9.68 20 9 C19.39414062 8.82984375 18.78828125 8.6596875 18.1640625 8.484375 C11.94050468 6.68433058 5.97357039 4.50381567 0 2 C0 1.34 0 0.68 0 0 Z " fill="#3BA259" transform="translate(288,296)"/>
<path d="M0 0 C0.99 0.33 1.98 0.66 3 1 C1.69675781 1.96099609 1.69675781 1.96099609 0.3671875 2.94140625 C-5.77036268 7.52702414 -11.3236765 11.85397483 -16 18 C-16.69921875 16.265625 -16.69921875 16.265625 -17 14 C-15.70703125 11.859375 -15.70703125 11.859375 -13.8125 9.75 C-13.20019531 9.04359375 -12.58789062 8.3371875 -11.95703125 7.609375 C-10 6 -10 6 -6 6 C-6 5.34 -6 4.68 -6 4 C-5.01 4 -4.02 4 -3 4 C-2.67 3.01 -2.34 2.02 -2 1 C-1.34 0.67 -0.68 0.34 0 0 Z " fill="#3BA359" transform="translate(155,284)"/>
<path d="M0 0 C2.64 0 5.28 0 8 0 C8 9.9 8 19.8 8 30 C6.02 30 4.04 30 2 30 C3.32 29.67 4.64 29.34 6 29 C6.02898816 25.06251542 6.04679464 21.12505821 6.0625 17.1875 C6.07087891 16.06794922 6.07925781 14.94839844 6.08789062 13.79492188 C6.09111328 12.72177734 6.09433594 11.64863281 6.09765625 10.54296875 C6.10289307 9.55321045 6.10812988 8.56345215 6.11352539 7.54370117 C6.11069959 4.87607266 6.11069959 4.87607266 5 2 C3.35 1.67 1.7 1.34 0 1 C0 0.67 0 0.34 0 0 Z " fill="#40B160" transform="translate(250,225)"/>
<path d="M0 0 C0.76171875 1.72265625 0.76171875 1.72265625 1 4 C-0.73046875 6.18359375 -0.73046875 6.18359375 -3.1875 8.4375 C-5.80165636 10.89764404 -8.14208808 13.17947969 -10.375 16 C-12 18 -12 18 -15 19 C-16.72795352 19.06802967 -18.45835365 19.08495645 -20.1875 19.0625 C-21.08855469 19.05347656 -21.98960937 19.04445313 -22.91796875 19.03515625 C-23.60503906 19.02355469 -24.29210937 19.01195312 -25 19 C-25.33 17.68 -25.66 16.36 -26 15 C-24.515 15.99 -24.515 15.99 -23 17 C-18.99670366 17.4448107 -16.80279127 17.5160801 -13.375 15.3125 C-10.89264362 12.89546879 -8.4196195 10.48010999 -6 8 C-5.0925 7.13375 -4.185 6.2675 -3.25 5.375 C-0.80995326 3.13466888 -0.80995326 3.13466888 0 0 Z " fill="#399D56" transform="translate(325,363)"/>
<path d="M0 0 C0.59425781 0.26554687 1.18851562 0.53109375 1.80078125 0.8046875 C10.96240294 4.7087067 19.8850274 6.08809339 29.78515625 6.65625 C32 7 32 7 34 9 C22.22429188 9.64231135 9.98304123 7.19352483 -1 3 C-0.67 2.01 -0.34 1.02 0 0 Z " fill="#3DA75B" transform="translate(99,453)"/>
<path d="M0 0 C0.66 0 1.32 0 2 0 C0.01794965 4.85994267 -3.83608502 7.84009167 -7.58984375 11.3671875 C-10.08268709 14.09032593 -11.51505047 16.63803505 -13 20 C-13.66 20 -14.32 20 -15 20 C-15 21.98 -15 23.96 -15 26 C-15.66 26 -16.32 26 -17 26 C-16.84930218 18.91720242 -13.51581941 15.2194678 -9 10 C-8.03513672 8.83597656 -8.03513672 8.83597656 -7.05078125 7.6484375 C-3.57956691 3.52955424 -3.57956691 3.52955424 -2 2 C-1.34 2 -0.68 2 0 2 C0 1.34 0 0.68 0 0 Z " fill="#ABB3A7" transform="translate(206,278)"/>
<path d="M0 0 C1.27310312 0.93441535 2.543388 1.87267111 3.8125 2.8125 C4.52019531 3.33457031 5.22789062 3.85664063 5.95703125 4.39453125 C9.55292513 7.22036755 9.55292513 7.22036755 11 9 C11.36302306 13.57409061 11.62404613 17.06393081 9 21 C7.73762269 18.47524538 7.90143596 16.68799534 7.9375 13.875 C7.94652344 12.96492188 7.95554687 12.05484375 7.96484375 11.1171875 C7.97644531 10.41851562 7.98804688 9.71984375 8 9 C7.38640625 8.7215625 6.7728125 8.443125 6.140625 8.15625 C3.29021919 6.61661475 1.84229048 4.63184355 0 2 C0 1.34 0 0.68 0 0 Z " fill="#154023" transform="translate(315,346)"/>
<path d="M0 0 C7.06760201 -0.24511915 13.98159316 0.07983706 21 0.875 C21.72952881 0.95347168 22.45905762 1.03194336 23.21069336 1.11279297 C26.833947 1.55133755 29.87139308 2.0609155 33 4 C29.83293977 5.01747184 27.83305682 4.92427695 24.625 4.125 C19.16655005 2.91651702 13.7732139 2.55194567 8.19921875 2.24609375 C5.38095733 2.02930441 2.75225941 1.62480936 0 1 C0 0.67 0 0.34 0 0 Z " fill="#59BD75" transform="translate(311,158)"/>
<path d="M0 0 C0.99 0.33 1.98 0.66 3 1 C1.7934375 1.7734375 1.7934375 1.7734375 0.5625 2.5625 C-2.25762496 4.83918868 -2.25762496 4.83918868 -3 8.375 C-3 13.27419076 -1.56817141 16.25758733 1.6875 19.875 C2.120625 20.24625 2.55375 20.6175 3 21 C2.67 21.66 2.34 22.32 2 23 C-2.52650261 20.18622811 -4.23776276 17.28681464 -5.6953125 12.31640625 C-6.21283329 8.38192125 -5.02603994 6.37673323 -3 3 C-1.3125 1.0625 -1.3125 1.0625 0 0 Z " fill="#3BA359" transform="translate(179,347)"/>
<path d="M0 0 C7.21808511 0.36702128 7.21808511 0.36702128 10.625 3.125 C11.40875 4.07375 12.1925 5.0225 13 6 C14.10318253 7.27168774 15.20737108 8.54250336 16.3125 9.8125 C17.2104053 10.87324959 18.10698344 11.93513145 19 13 C18.67 13.66 18.34 14.32 18 15 C16.29115995 13.37660195 14.62553283 11.70680947 13 10 C13 9.34 13 8.68 13 8 C12.154375 7.773125 11.30875 7.54625 10.4375 7.3125 C6.30310878 5.73391426 3.48461009 3.71799587 0 1 C0 0.67 0 0.34 0 0 Z " fill="#71C888" transform="translate(343,112)"/>
<path d="M0 0 C3 3.75 3 3.75 3 6 C3.99 6 4.98 6 6 6 C5.1875 7.9375 5.1875 7.9375 4 10 C3.01 10.33 2.02 10.66 1 11 C-0.20882096 13.00016466 -0.20882096 13.00016466 -1 15 C-1.33 15 -1.66 15 -2 15 C-2.33 13.02 -2.66 11.04 -3 9 C-1.68 8.67 -0.36 8.34 1 8 C0.67 5.36 0.34 2.72 0 0 Z " fill="#133820" transform="translate(314,363)"/>
<path d="M0 0 C1.6256807 0.30893932 3.25052748 0.6222695 4.875 0.9375 C5.77992188 1.11152344 6.68484375 1.28554688 7.6171875 1.46484375 C10 2 10 2 12 3 C12 3.66 12 4.32 12 5 C12.9075 5.2475 13.815 5.495 14.75 5.75 C18.10351489 7.03981342 19.67708236 8.31971042 22 11 C17.73170158 9.67491631 13.85211968 8.03433232 9.875 6 C8.86179687 5.484375 7.84859375 4.96875 6.8046875 4.4375 C5.87914062 3.963125 4.95359375 3.48875 4 3 C2.66754733 2.3315749 1.33460802 1.66411117 0 1 C0 0.67 0 0.34 0 0 Z " fill="#369351" transform="translate(266,359)"/>
<path d="M0 0 C5.58570255 3.40591619 11.86670133 7.600104 14 14 C13.01 14 12.02 14 11 14 C11 13.34 11 12.68 11 12 C10.01 11.67 9.02 11.34 8 11 C6.46484375 9.40625 6.46484375 9.40625 4.9375 7.5 C2.82278233 4.81893599 2.82278233 4.81893599 0 3 C0 2.01 0 1.02 0 0 Z " fill="#41B560" transform="translate(435,66)"/>
<path d="M0 0 C1.32 0.33 2.64 0.66 4 1 C2.47163069 2.18403314 0.92661017 3.34659067 -0.625 4.5 C-1.48351562 5.1496875 -2.34203125 5.799375 -3.2265625 6.46875 C-6.45328627 8.25026509 -8.36751161 8.40814476 -12 8 C-13.875 6.5 -13.875 6.5 -15 5 C-13.948125 5.020625 -12.89625 5.04125 -11.8125 5.0625 C-8.67295096 5.01103198 -6.03116604 4.73482813 -3 4 C-3 3.34 -3 2.68 -3 2 C-2.01 2 -1.02 2 0 2 C0 1.34 0 0.68 0 0 Z " fill="#174424" transform="translate(204,371)"/>
<path d="M0 0 C0.99 1.32 1.98 2.64 3 4 C2.01 4.495 2.01 4.495 1 5 C1.33 6.65 1.66 8.3 2 10 C1.34 10 0.68 10 0 10 C0.309375 11.11375 0.309375 11.11375 0.625 12.25 C1.04408751 15.32330841 0.61949011 16.42786866 -1 19 C-1.33 19 -1.66 19 -2 19 C-2.21432579 12.35590042 -1.51233701 6.46794133 0 0 Z " fill="#4CC16C" transform="translate(50,109)"/>
<path d="M0 0 C5.92511001 1.36733308 10.73247404 4.74195743 15 9 C15 9.99 15 10.98 15 12 C11.26427172 10.37228982 8.38341608 8.01966695 5.25 5.4375 C4.26515625 4.63183594 3.2803125 3.82617188 2.265625 2.99609375 C1.51796875 2.33738281 0.7703125 1.67867188 0 1 C0 0.67 0 0.34 0 0 Z " fill="#369852" transform="translate(348,289)"/>
<path d="M0 0 C-0.625 1.875 -0.625 1.875 -2 4 C-3.98723268 4.70381157 -5.98777953 5.3711811 -8 6 C-8.99 7.485 -8.99 7.485 -10 9 C-13.125 9.1875 -13.125 9.1875 -16 9 C-13.50506504 6.18368359 -10.73437182 4.59044019 -7.4375 2.8125 C-6.46683594 2.28269531 -5.49617187 1.75289062 -4.49609375 1.20703125 C-2 0 -2 0 0 0 Z " fill="#174325" transform="translate(145,217)"/>
<path d="M0 0 C0 3 0 3 -0.9609375 4.890625 C-2.12763791 7.25911456 -2.39388131 9.13065487 -2.625 11.75 C-2.69976562 12.54921875 -2.77453125 13.3484375 -2.8515625 14.171875 C-2.90054688 14.77515625 -2.94953125 15.3784375 -3 16 C-2.34 16 -1.68 16 -1 16 C-1.33 16.99 -1.66 17.98 -2 19 C-4.69001628 16.42206774 -5.30533765 14.23233669 -5.5 10.625 C-5.3667271 5.58561852 -3.53704134 3.4486153 0 0 Z " fill="#143F22" transform="translate(143,296)"/>
<path d="M0 0 C2.8125 0.125 2.8125 0.125 6 1 C7.875 4.0625 7.875 4.0625 9 7 C11.97 7 14.94 7 18 7 C17.67 7.66 17.34 8.32 17 9 C14.03 9 11.06 9 8 9 C7.34 7.68 6.68 6.36 6 5 C4.68352881 4.30062468 3.34977849 3.63270867 2 3 C1.34 2.01 0.68 1.02 0 0 Z " fill="#194B28" transform="translate(335,322)"/>
<path d="M0 0 C2.375 -0.125 2.375 -0.125 5 0 C5.66 0.66 6.32 1.32 7 2 C8.134375 2.474375 9.26875 2.94875 10.4375 3.4375 C13.44507356 4.75661121 14.99234762 5.51995882 17 8 C14.03 7.505 14.03 7.505 11 7 C11 6.34 11 5.68 11 5 C10.113125 4.896875 9.22625 4.79375 8.3125 4.6875 C4.93186954 3.98585972 2.80276282 2.97842082 0 1 C0 0.67 0 0.34 0 0 Z " fill="#143C21" transform="translate(316,272)"/>
<path d="M0 0 C0.69738281 0.00451172 1.39476562 0.00902344 2.11328125 0.01367188 C3.82555803 0.0253998 5.53779033 0.04333347 7.25 0.0625 C7.25 0.3925 7.25 0.7225 7.25 1.0625 C0.81971459 2.38638229 -5.1794834 3.31044402 -11.75 3.0625 C-11.75 2.4025 -11.75 1.7425 -11.75 1.0625 C-7.88276369 -0.20332219 -4.01848738 -0.0493765 0 0 Z " fill="#133B20" transform="translate(235.75,255.9375)"/>
<path d="M0 0 C7.41887707 0.7727997 13.72648247 2.88300412 20 7 C19.34 7.66 18.68 8.32 18 9 C16.68 8.34 15.36 7.68 14 7 C14 6.34 14 5.68 14 5 C13.236875 5.04125 12.47375 5.0825 11.6875 5.125 C9 5 9 5 6 3 C4.01200182 2.29835358 2.01301483 1.62627128 0 1 C0 0.67 0 0.34 0 0 Z " fill="#D5F1D6" transform="translate(329,109)"/>
<path d="M0 0 C2 1 4 2 6 3 C7.02673828 3.48726562 7.02673828 3.48726562 8.07421875 3.984375 C8.77160156 4.31953125 9.46898437 4.6546875 10.1875 5 C10.84105469 5.309375 11.49460937 5.61875 12.16796875 5.9375 C14.11864496 7.06880902 15.48090683 8.34451766 17 10 C14.625 10.1875 14.625 10.1875 12 10 C11.34 9.01 10.68 8.02 10 7 C8.11217076 6.14172326 8.11217076 6.14172326 6 5.5625 C2.17909238 4.26117639 2.17909238 4.26117639 0.5 1.8125 C0.335 1.214375 0.17 0.61625 0 0 Z " fill="#11361E" transform="translate(360,218)"/>
<path d="M0 0 C0.33 0.99 0.66 1.98 1 3 C-4.75 8 -4.75 8 -7 8 C-7.33 8.66 -7.66 9.32 -8 10 C-8.99 9.67 -9.98 9.34 -11 9 C-8.77276018 6.66034429 -6.41043353 4.72900834 -3.8125 2.8125 C-3.09707031 2.28269531 -2.38164062 1.75289063 -1.64453125 1.20703125 C-1.10183594 0.80871094 -0.55914062 0.41039062 0 0 Z " fill="#44B863" transform="translate(434,443)"/>
<path d="M0 0 C5.6143991 1.56448671 10.86810338 3.16395187 16 6 C12.52176885 7.15941038 10.54104422 6.70820884 7 6 C7 5.34 7 4.68 7 4 C4.69 3.34 2.38 2.68 0 2 C0 1.34 0 0.68 0 0 Z " fill="#13391F" transform="translate(281,327)"/>
<path d="M0 0 C0.33 0 0.66 0 1 0 C1 4.62 1 9.24 1 14 C1.66 14 2.32 14 3 14 C3.66 16.64 4.32 19.28 5 22 C4.34 22.33 3.68 22.66 3 23 C3 21.35 3 19.7 3 18 C2.01 17.67 1.02 17.34 0 17 C0 11.39 0 5.78 0 0 Z " fill="#5CBD77" transform="translate(187,307)"/>
<path d="M0 0 C-0.33 0.99 -0.66 1.98 -1 3 C-1.99 2.67 -2.98 2.34 -4 2 C-6.23786817 2.24245894 -8.46775934 2.56388029 -10.6875 2.9375 C-11.86699219 3.13214844 -13.04648438 3.32679687 -14.26171875 3.52734375 C-15.16535156 3.68332031 -16.06898437 3.83929688 -17 4 C-14.72532227 1.72532227 -13.23349588 1.24867564 -10.1875 0.3125 C-9.33542969 0.04050781 -8.48335937 -0.23148438 -7.60546875 -0.51171875 C-4.74216525 -1.04831986 -2.79320318 -0.74719439 0 0 Z " fill="#4CC16C" transform="translate(114,53)"/>
<path d="M0 0 C1.98 0.66 3.96 1.32 6 2 C6 2.66 6 3.32 6 4 C8.64 4.33 11.28 4.66 14 5 C14 5.66 14 6.32 14 7 C10.53283176 7.42455121 7.98768533 7.63494057 4.9765625 5.69921875 C3.22128319 4.19827583 1.55578118 2.70710336 0 1 C0 0.67 0 0.34 0 0 Z " fill="#174325" transform="translate(295,374)"/>
<path d="M0 0 C2.75920805 2.75920805 3.02402211 5.80096979 3.75 9.5 C3.90082031 10.18964844 4.05164062 10.87929688 4.20703125 11.58984375 C4.56582267 13.37683404 4.79234114 15.18921471 5 17 C4.34 17.66 3.68 18.32 3 19 C2.17642654 15.85409777 1.5303798 12.69715923 0.9375 9.5 C0.76089844 8.5615625 0.58429687 7.623125 0.40234375 6.65625 C0 4 0 4 0 0 Z " fill="#3EAC5C" transform="translate(50,396)"/>
<path d="M0 0 C0 0.99 0 1.98 0 3 C-1.61992165 3.86375896 -3.24611861 4.71575854 -4.875 5.5625 C-6.23238281 6.27599609 -6.23238281 6.27599609 -7.6171875 7.00390625 C-8.40351563 7.33261719 -9.18984375 7.66132813 -10 8 C-10.66 7.67 -11.32 7.34 -12 7 C-9.6975881 4.39954125 -7.50103323 3.15260817 -4.3125 1.8125 C-3.50425781 1.46832031 -2.69601563 1.12414062 -1.86328125 0.76953125 C-1.24839844 0.51558594 -0.63351563 0.26164062 0 0 Z " fill="#359150" transform="translate(187,305)"/>
<path d="M0 0 C0.66 0.33 1.32 0.66 2 1 C-0.37979288 3.63029739 -2.92952799 5.24544457 -6 7 C-6.886875 7.556875 -7.77375 8.11375 -8.6875 8.6875 C-11 10 -11 10 -13 10 C-13 9.34 -13 8.68 -13 8 C-11.06753564 6.73792297 -9.07723953 5.56359129 -7.0625 4.4375 C-3.31381893 2.52358755 -3.31381893 2.52358755 0 0 Z " fill="#34914F" transform="translate(157,247)"/>
<path d="M0 0 C0 3 0 3 -2 6 C-3.43836751 5.88541307 -4.87570966 5.75790884 -6.3125 5.625 C-7.11300781 5.55539062 -7.91351563 5.48578125 -8.73828125 5.4140625 C-11 5 -11 5 -14 3 C-13.67 2.34 -13.34 1.68 -13 1 C-11.515 1.99 -11.515 1.99 -10 3 C-6.47704517 3.37478243 -4.65118137 3.41127245 -1.625 1.5 C-0.820625 0.7575 -0.820625 0.7575 0 0 Z " fill="#399D56" transform="translate(202,375)"/>
<path d="M0 0 C5.41390868 0.46671627 9.20517932 1.24297811 14 4 C14 4.66 14 5.32 14 6 C9.27934033 4.45730076 4.58335908 2.92205381 0 1 C0 0.67 0 0.34 0 0 Z " fill="#154123" transform="translate(293,297)"/>
<path d="M0 0 C1.98 0 3.96 0 6 0 C6.33 0.66 6.66 1.32 7 2 C9.01669827 3.13350534 9.01669827 3.13350534 11 4 C11 4.66 11 5.32 11 6 C6.95743617 4.77782954 3.50711041 3.37245704 0 1 C0 0.67 0 0.34 0 0 Z " fill="#164324" transform="translate(338,245)"/>
<path d="M0 0 C4.43458973 1.3937282 6.87378374 3.60582235 10 7 C6.4257023 6.67506385 4.44287547 6.36129314 1.625 4.0625 C0 2 0 2 0 0 Z " fill="#3CA45A" transform="translate(319,311)"/>
<path d="M0 0 C0.55171875 0.14308594 1.1034375 0.28617187 1.671875 0.43359375 C4.18714769 1.0455309 6.71042508 1.56126811 9.25 2.0625 C10.14203125 2.23910156 11.0340625 2.41570312 11.953125 2.59765625 C12.62859375 2.73042969 13.3040625 2.86320312 14 3 C14 3.33 14 3.66 14 4 C12.22950311 4.05410687 10.45853151 4.09284119 8.6875 4.125 C7.20830078 4.15980469 7.20830078 4.15980469 5.69921875 4.1953125 C3 4 3 4 0 2 C0 1.34 0 0.68 0 0 Z " fill="#3EAD5E" transform="translate(339,329)"/>
<path d="M0 0 C0.66 0.33 1.32 0.66 2 1 C-1.3 3.31 -4.6 5.62 -8 8 C-8.33 7.01 -8.66 6.02 -9 5 C-7.54735962 4.1361871 -6.0876837 3.28419546 -4.625 2.4375 C-3.40683594 1.72400391 -3.40683594 1.72400391 -2.1640625 0.99609375 C-1.44992188 0.66738281 -0.73578125 0.33867187 0 0 Z " fill="#3BA359" transform="translate(168,276)"/>
<path d="M0 0 C0 0.66 0 1.32 0 2 C-2.1875 4.1875 -2.1875 4.1875 -5 6 C-7.8125 5.75 -7.8125 5.75 -10 5 C-3.63636364 0 -3.63636364 0 0 0 Z " fill="#133920" transform="translate(155,212)"/>
<path d="M0 0 C0.66 0 1.32 0 2 0 C1.32829194 3.8063457 0.27253436 7.35206816 -1 11 C-2.65 11 -4.3 11 -6 11 C-4.68 10.67 -3.36 10.34 -2 10 C-1.855625 8.906875 -1.71125 7.81375 -1.5625 6.6875 C-1 3 -1 3 0 0 Z " fill="#C5EAC9" transform="translate(370,187)"/>
<path d="M0 0 C9.01531729 -0.63019694 9.01531729 -0.63019694 13.125 2 C13.74375 2.66 14.3625 3.32 15 4 C9.86496656 3.35812082 5.0056546 2.31727753 0 1 C0 0.67 0 0.34 0 0 Z " fill="#6FC686" transform="translate(328,108)"/>
<path d="M0 0 C5.53846154 0.49230769 5.53846154 0.49230769 7.875 3.0625 C8.431875 4.0215625 8.431875 4.0215625 9 5 C7.02 5 5.04 5 3 5 C3 4.01 3 3.02 3 2 C2.01 1.67 1.02 1.34 0 1 C0 0.67 0 0.34 0 0 Z " fill="#143B21" transform="translate(340,286)"/>
<path d="M0 0 C2.71435596 0.93305986 3.78043163 1.62673377 5.25 4.125 C5.4975 4.74375 5.745 5.3625 6 6 C5.236875 5.67 4.47375 5.34 3.6875 5 C1.00930865 3.82563314 1.00930865 3.82563314 -2 4 C-2 3.01 -2 2.02 -2 1 C-1.34 0.67 -0.68 0.34 0 0 Z " fill="#3AAB59" transform="translate(84,445)"/>
<path d="M0 0 C2.15377564 2.62198774 3.40072174 4.64404172 4 8 C3.01 8 2.02 8 1 8 C0.26919734 6.02253397 -0.39421747 4.01927511 -1 2 C-0.67 1.34 -0.34 0.68 0 0 Z " fill="#44B964" transform="translate(54,413)"/>
<path d="M0 0 C2 1 2 1 2.8125 3.25 C3.04981941 6.7306847 1.99176373 8.21153078 0 11 C-0.66 10.67 -1.32 10.34 -2 10 C-1.34 6.7 -0.68 3.4 0 0 Z " fill="#3BA158" transform="translate(368,307)"/>
<path d="M0 0 C1.051875 0.639375 2.10375 1.27875 3.1875 1.9375 C6.10828412 3.61754452 8.6171743 4.58996052 12 5 C12 5.33 12 5.66 12 6 C7.07008655 6.28999491 3.90748231 6.19703098 0 3 C0 2.01 0 1.02 0 0 Z " fill="#3CA55A" transform="translate(382,276)"/>
<path d="M0 0 C0.99 1.485 0.99 1.485 2 3 C2.86175198 4.07327292 3.7369604 5.13587416 4.625 6.1875 C5.40875 7.115625 6.1925 8.04375 7 9 C6.67 9.66 6.34 10.32 6 11 C3.5625 9.4375 3.5625 9.4375 1 7 C0.1875 3.25 0.1875 3.25 0 0 Z " fill="#389954" transform="translate(175,359)"/>
<path d="M0 0 C-1.45537568 0.83848804 -2.91440373 1.67063934 -4.375 2.5 C-5.59316406 3.19609375 -5.59316406 3.19609375 -6.8359375 3.90625 C-9 5 -9 5 -11 5 C-10 2 -10 2 -6.625 0.25 C-3 -1 -3 -1 0 0 Z " fill="#3BA55A" transform="translate(182,271)"/>
<path d="M0 0 C3.25543229 0.34879632 4.01873107 1.02133261 6.25 3.5625 C6.8275 4.366875 7.405 5.17125 8 6 C7.01 6 6.02 6 5 6 C5 5.34 5 4.68 5 4 C4.360625 3.896875 3.72125 3.79375 3.0625 3.6875 C2.381875 3.460625 1.70125 3.23375 1 3 C0.67 2.01 0.34 1.02 0 0 Z " fill="#3CA55A" transform="translate(371,268)"/>
<path d="M0 0 C3.11373372 1.49920512 6.12228205 3.08152136 9 5 C9 5.66 9 6.32 9 7 C8.01 7 7.02 7 6 7 C6 6.34 6 5.68 6 5 C4.68 5 3.36 5 2 5 C1.34 3.35 0.68 1.7 0 0 Z " fill="#194727" transform="translate(377,228)"/>
<path d="M0 0 C1.65 0.33 3.3 0.66 5 1 C5.33 2.32 5.66 3.64 6 5 C3.69 4.01 1.38 3.02 -1 2 C-0.67 1.34 -0.34 0.68 0 0 Z " fill="#12371F" transform="translate(293,371)"/>
<path d="M0 0 C3.99996286 1.33332095 4.83782337 3.4957827 7 7 C6.67 7.66 6.34 8.32 6 9 C4.99105628 8.07213211 3.99309093 7.13231567 3 6.1875 C2.1646875 5.40439453 2.1646875 5.40439453 1.3125 4.60546875 C0 3 0 3 0 0 Z " fill="#348D4E" transform="translate(397,241)"/>
<path d="M0 0 C3.45925163 1.2491742 6.14693203 2.67527795 9 5 C5.625 4.75 5.625 4.75 2 4 C0.5625 1.9375 0.5625 1.9375 0 0 Z " fill="#133B20" transform="translate(346,211)"/>
<path d="M0 0 C1.231394 3.69418201 0.64432764 6.2056261 0 10 C-0.99 10.33 -1.98 10.66 -3 11 C-2.69078116 9.54096742 -2.37751201 8.08279278 -2.0625 6.625 C-1.88847656 5.81289063 -1.71445312 5.00078125 -1.53515625 4.1640625 C-1 2 -1 2 0 0 Z " fill="#6AC181" transform="translate(278,313)"/>
<path d="M0 0 C-3.85756507 2.15305957 -6.55129785 3.39253254 -11 3 C-7.18178484 -0.02823961 -4.81391924 -1.49397494 0 0 Z " fill="#143E21" transform="translate(181,203)"/>
<path d="M0 0 C0.99 0.33 1.98 0.66 3 1 C0.69 2.65 -1.62 4.3 -4 6 C-4.33 5.34 -4.66 4.68 -5 4 C-4.67 3.34 -4.34 2.68 -4 2 C-2.68 2 -1.36 2 0 2 C0 1.34 0 0.68 0 0 Z " fill="#399D56" transform="translate(191,337)"/>
<path d="M0 0 C1.98 0 3.96 0 6 0 C3.3534665 2.6465335 0.43778736 3.59941997 -3 5 C-3 4.34 -3 3.68 -3 3 C-2.34 3 -1.68 3 -1 3 C-0.67 2.01 -0.34 1.02 0 0 Z " fill="#174425" transform="translate(183,304)"/>
<path d="M0 0 C-3.20336822 2.83374881 -5.78087253 3.5205537 -10 4 C-6.66064924 0.50886057 -4.84725717 -0.1275594 0 0 Z " fill="#399B55" transform="translate(197,264)"/>
<path d="M0 0 C3.37503669 1.1858237 5.64722731 2.27573689 8 5 C5.6875 5.3125 5.6875 5.3125 3 5 C1.1875 2.5 1.1875 2.5 0 0 Z " fill="#194927" transform="translate(369,223)"/>
<path d="M0 0 C0.66 0.33 1.32 0.66 2 1 C2 2.98 2 4.96 2 7 C1.34 7 0.68 7 0 7 C-0.38133299 5.0085944 -0.71325582 3.00720923 -1 1 C-0.67 0.67 -0.34 0.34 0 0 Z " fill="#46BF67" transform="translate(252,104)"/>
</svg>
